<?xml version="1.0" encoding="UTF-8"?>
<svg width="1303px" height="386px" viewBox="0 0 1303 386" version="1.1" xmlns="http://www.w3.org/2000/svg" xmlns:xlink="http://www.w3.org/1999/xlink">
    <title>aivalable-on-the-app-store-2</title>
    <g id="Page-1" stroke="none" stroke-width="1" fill="none" fill-rule="evenodd">
        <g id="Group" transform="translate(-3475.000000, -157.000000)" fill="#FFFFFF" fill-rule="nonzero">
            <g id="aivalable-on-the-app-store-2" transform="translate(3475.000000, 157.000000)">
                <path d="M290.880183,191.822313 C290.59935,160.743938 316.436051,145.624207 317.617489,144.920291 C302.985085,123.677455 280.306149,120.775007 272.336282,120.543582 C253.288009,118.547547 234.811088,131.893023 225.107799,131.893023 C215.210832,131.893023 200.268542,120.736436 184.164182,121.064287 C163.440591,121.382496 144.054188,133.329783 133.420436,151.88231 C111.477478,189.710565 127.842497,245.300646 148.867097,275.877602 C159.383028,290.862335 171.672731,307.573109 187.756916,306.984905 C203.493288,306.348488 209.371428,297.004726 228.361597,297.004726 C247.176648,297.004726 252.69729,306.984905 269.101045,306.60884 C285.99061,306.348488 296.622749,291.566251 306.772305,276.456163 C318.925625,259.301826 323.805515,242.388555 324,241.520714 C323.611836,241.385716 291.209437,229.062364 290.880183,191.822313 L290.880183,191.822313 Z M259.891636,100.428941 C268.354576,89.8894855 274.146368,75.5508123 272.538837,61 C260.28787,61.5399904 244.968714,69.4373497 236.145855,79.7453805 C228.340615,88.8287901 221.368192,103.717096 223.169401,117.718276 C236.93106,118.7404 251.0599,110.80447 259.891636,100.428941 L259.891636,100.428941 Z" id="Shape"></path>
                <g id="Group" transform="translate(410.000000, 173.000000)">
                    <path d="M108.604598,131.991238 L86.6777011,131.991238 L74.6666667,94.0180952 L32.9168966,94.0180952 L21.4755172,131.991238 L0.128735632,131.991238 L41.5011494,2.71352381 L67.0487356,2.71352381 L108.604598,131.991238 Z M71.0467816,78.0866667 L60.1847126,44.3295238 C59.0357471,40.8809524 56.8729885,32.7598095 53.7052874,19.9758095 L53.3198851,19.9758095 C52.0454023,25.4740952 50.0081609,33.5952381 47.2178161,44.3295238 L36.5391954,78.0866667 L71.0467816,78.0866667 Z M214.792989,84.2358095 C214.792989,100.089524 210.515747,112.620952 201.950805,121.82119 C194.285402,130.009524 184.755747,134.100048 173.390805,134.100048 C161.11908,134.100048 152.294253,129.698667 146.935632,120.878905 L146.935632,169.790333 L126.350805,169.790333 L126.350805,69.4118095 C126.350805,59.4538571 126.09092,49.2449524 125.588851,38.7729524 L143.692299,38.7729524 L144.841264,53.548381 L145.226667,53.548381 C152.091494,42.4158095 162.509425,36.8487143 176.490115,36.8487143 C187.41977,36.8487143 196.543908,41.191 203.843218,49.8852857 C211.132874,58.5998095 214.792989,70.0432381 214.792989,84.2358095 L214.792989,84.2358095 Z M193.821149,84.9935238 C193.821149,75.920381 191.793563,68.440381 187.71908,62.5438095 C183.268046,56.4140952 177.291494,53.3451905 169.79908,53.3451905 C164.72046,53.3451905 160.105287,55.0540952 155.982529,58.4249524 C151.850115,61.8249524 149.146667,66.264381 147.882644,71.7626667 C147.245402,74.3272381 146.926782,76.4158095 146.926782,78.0680476 L146.926782,93.6198095 C146.926782,100.390667 148.992989,106.11319 153.125402,110.795476 C157.257816,115.458333 162.626092,117.798667 169.23023,117.798667 C176.984138,117.798667 183.018621,114.778333 187.333678,108.78381 C191.658391,102.770667 193.821149,94.8438095 193.821149,84.9935238 L193.821149,84.9935238 Z M321.356322,84.2358095 C321.356322,100.089524 317.07908,112.620952 308.514943,121.82119 C300.83908,130.009524 291.31908,134.100048 279.945287,134.100048 C267.673563,134.100048 258.848736,129.698667 253.490115,120.878905 L253.490115,169.790333 L232.905287,169.790333 L232.905287,69.4118095 C232.905287,59.4538571 232.644598,49.2449524 232.142529,38.7729524 L250.245977,38.7729524 L251.394943,53.548381 L251.781149,53.548381 C258.636322,42.4158095 269.054253,36.8487143 283.043793,36.8487143 C293.963793,36.8487143 303.087931,41.191 310.407356,49.8852857 C317.688161,58.5998095 321.356322,70.0432381 321.356322,84.2358095 Z M300.375632,84.9935238 C300.375632,75.920381 298.339195,68.440381 294.263908,62.5438095 C289.812874,56.4140952 283.855632,53.3451905 276.363218,53.3451905 C271.284598,53.3451905 266.669425,55.0540952 262.527356,58.4249524 C258.394943,61.8249524 255.701954,66.264381 254.436322,71.7626667 C253.808736,74.3272381 253.470805,76.4158095 253.470805,78.0680476 L253.470805,93.6198095 C253.470805,100.390667 255.546667,106.11319 259.65977,110.795476 C263.792184,115.448619 269.16046,117.798667 275.783908,117.798667 C283.545862,117.798667 289.580345,114.778333 293.887356,108.78381 C298.212874,102.770667 300.375632,94.8438095 300.375632,84.9935238 L300.375632,84.9935238 Z M440.501149,95.7278095 C440.501149,106.734095 436.677701,115.680952 429.079885,122.58781 C420.717701,130.126095 409.045402,133.904952 394.07908,133.904952 C380.252874,133.904952 369.168736,131.22381 360.807356,125.85181 L365.567356,108.589524 C374.594943,113.971238 384.510805,116.652381 395.305287,116.652381 C403.068046,116.652381 409.102529,114.884381 413.408736,111.377524 C417.723793,107.860952 419.906667,103.159238 419.906667,97.2918095 C419.906667,92.0371905 418.101149,87.6358095 414.557701,84.0520476 C410.994943,80.4771905 405.105287,77.1451905 396.831609,74.0851905 C374.334253,65.6434762 363.076322,53.296619 363.076322,37.0543333 C363.076322,26.4463333 367.054253,17.7617619 374.991609,10.9714762 C382.928161,4.19090476 393.452299,0.801428571 406.544713,0.801428571 C418.237126,0.801428571 427.979195,2.85114286 435.712989,6.94085714 L430.547471,23.8234762 C423.267471,19.8600476 415.050115,17.8783333 405.858391,17.8783333 C398.598506,17.8783333 392.901149,19.6754762 388.826667,23.2503333 C385.39908,26.4463333 383.661149,30.3425714 383.661149,34.9657619 C383.661149,40.0665714 385.641264,44.302 389.57977,47.6242857 C392.997701,50.6834762 399.234943,54.0162857 408.252874,57.5911429 C419.317701,62.0791429 427.446552,67.3054286 432.651494,73.3088571 C437.894253,79.3106667 440.501149,86.800381 440.501149,95.7278095 L440.501149,95.7278095 Z M508.735057,54.3158095 L486.044598,54.3158095 L486.044598,99.5746667 C486.044598,111.086095 490.042644,116.827238 498.056437,116.827238 C501.734253,116.827238 504.786092,116.515571 507.199885,115.865524 L507.768736,131.592952 C503.714368,133.118905 498.374253,133.885524 491.76046,133.885524 C483.630805,133.885524 477.277701,131.388952 472.691494,126.39581 C468.124598,121.402667 465.827471,113.038667 465.827471,101.264952 L465.827471,54.2769524 L452.309425,54.2769524 L452.309425,38.7340952 L465.827471,38.7340952 L465.827471,21.6660952 L486.044598,15.5266667 L486.044598,38.7340952 L508.735057,38.7340952 L508.735057,54.3158095 L508.735057,54.3158095 Z M610.905287,84.6146667 C610.905287,98.9424286 606.831609,110.706429 598.701149,119.906667 C590.194943,129.378095 578.87908,134.099238 564.772874,134.099238 C551.15908,134.099238 540.335632,129.562667 532.263908,120.499238 C524.192184,111.415571 520.156322,99.9729524 520.156322,86.1689524 C520.156322,71.723 524.327356,59.8918095 532.64046,50.692381 C540.972874,41.4832381 552.192989,36.8794762 566.298391,36.8794762 C579.892874,36.8794762 590.813678,41.4249524 599.077701,50.4980952 C606.976437,59.2992381 610.905287,70.6649524 610.905287,84.6146667 L610.905287,84.6146667 Z M589.567356,85.0906667 C589.567356,76.551 587.733678,69.2264286 584.054253,63.0967143 C579.738391,55.6944286 573.55908,51.9940952 565.554943,51.9940952 C557.309425,51.9940952 550.986092,55.6944286 546.67908,63.0967143 C542.990805,69.2264286 541.156322,76.6772857 541.156322,85.4784286 C541.156322,94.0278095 542.990805,101.371 546.67908,107.482095 C551.130115,114.884381 557.338391,118.585524 565.381149,118.585524 C573.250115,118.585524 579.41977,114.806667 583.88046,107.297524 C587.666092,101.022095 589.567356,93.6489524 589.567356,85.0906667 L589.567356,85.0906667 Z M677.845402,56.9872381 C675.808161,56.6075714 673.626092,56.4132857 671.357126,56.4132857 C664.115747,56.4132857 658.515747,59.1535238 654.577241,64.6704286 C651.15931,69.5275714 649.439885,75.667 649.439885,83.079 L649.439885,131.990429 L628.855057,131.990429 L628.855057,68.1295238 C628.855057,57.3952381 628.652299,47.6032381 628.256437,38.7826667 L646.186897,38.7826667 L646.94,56.6172857 L647.509655,56.6172857 C649.691724,50.488381 653.109655,45.543 657.802069,41.8418571 C662.388276,38.5106667 667.340575,36.8487143 672.68069,36.8487143 C674.581954,36.8487143 676.301379,36.9847143 677.826897,37.228381 L677.845402,56.9872381 L677.845402,56.9872381 Z M769.907471,80.9718095 C769.907471,84.6826667 769.665287,87.8098571 769.153563,90.3655238 L707.39908,90.3655238 C707.630805,99.5746667 710.624713,106.627238 716.35908,111.484381 C721.564023,115.817762 728.292874,117.992952 736.557701,117.992952 C745.701149,117.992952 754.042414,116.53581 761.545287,113.592381 L764.770115,127.95981 C756.003218,131.806667 745.652874,133.720381 733.709425,133.720381 C719.343333,133.720381 708.065287,129.464714 699.858391,120.975238 C691.670805,112.475238 687.568161,101.051238 687.568161,86.7420952 C687.568161,72.6944286 691.381954,60.9895238 699.018391,51.6540952 C707.013678,41.6872381 717.817011,36.703 731.412299,36.703 C744.765402,36.703 754.873563,41.6864286 761.738391,51.6540952 C767.174253,59.5518095 769.907471,69.3438095 769.907471,80.9718095 L769.907471,80.9718095 Z M750.277701,75.5998095 C750.422529,69.4506667 749.070805,64.156381 746.28046,59.6780952 C742.716897,53.9078095 737.233563,51.032381 729.885977,51.032381 C723.156322,51.032381 717.672184,53.8398095 713.501149,59.4740952 C710.073563,63.952381 708.036322,69.3340952 707.40954,75.580381 L750.277701,75.5998095 Z" id="Shape"></path>
                </g>
                <g id="Group" transform="translate(417.000000, 62.000000)">
                    <path d="M53.8912429,65.5780235 L43.1033371,65.5780235 L37.2027832,47.4076235 L16.6812168,47.4076235 L11.0510647,65.5780235 L0.553679909,65.5780235 L20.8917594,3.70785882 L33.4461294,3.70785882 L53.8912429,65.5780235 Z M35.425857,39.7838118 L30.0854211,23.6281412 C29.5253031,21.9728471 28.4919818,18.1231059 26.8985426,11.9748706 L26.7053984,11.9748706 C26.0487083,14.6328 25.1119591,18.492 23.7020068,23.6281412 L18.458143,39.7838118 L35.425857,39.7838118 Z M104.745294,20.9702118 L87.497521,65.5780235 L77.6560216,65.5780235 L60.9691714,20.9702118 L71.8431873,20.9702118 L79.6268967,44.5605176 C80.940277,48.5048471 82.0605131,52.2694588 82.9006901,55.8448941 L83.1807491,55.8448941 C83.9348161,52.6383529 85.0542474,48.8737412 86.4545426,44.5605176 L94.1416799,20.9702118 L104.745294,20.9702118 L104.745294,20.9702118 Z M141.461998,65.5780235 L140.708736,60.4410941 L140.427872,60.4410941 C137.337565,64.5746 132.837306,66.5893294 127.121044,66.5893294 C118.969556,66.5893294 113.155917,60.9897059 113.155917,53.4604824 C113.155917,42.4504118 122.90004,36.7562 139.771182,36.7562 L139.771182,35.9332824 C139.771182,30.0593529 136.584303,27.1176588 130.307118,27.1176588 C125.806054,27.1176588 121.866719,28.2243412 118.409438,30.4282471 L116.351648,23.9111176 C120.571848,21.3383176 125.816516,20.0519176 132.005982,20.0519176 C143.903662,20.0519176 149.910445,26.2001529 149.910445,38.5060824 L149.910445,54.9360588 C149.910445,59.4384588 150.103589,62.9287647 150.567135,65.5866941 L141.461998,65.5780235 L141.461998,65.5780235 Z M140.052045,43.3592471 C128.802203,43.3592471 123.180904,46.0266353 123.180904,52.3545882 C123.180904,57.0367059 126.087723,59.3257412 130.114779,59.3257412 C135.270923,59.3257412 140.052045,55.476 140.052045,50.2452706 L140.052045,43.3592471 Z M172.451977,13.6207059 C169.081612,13.6207059 166.454851,11.0479059 166.454851,7.65218824 C166.454851,4.25647059 169.169331,1.77825882 172.645121,1.77825882 C176.112059,1.77825882 178.922306,4.25647059 178.826539,7.65218824 C178.826539,11.2370824 176.209436,13.6207059 172.451977,13.6207059 Z M177.705498,65.5780235 L167.584745,65.5780235 L167.584745,20.9702118 L177.705498,20.9702118 L177.705498,65.5780235 Z M205.807973,65.5780235 L195.687219,65.5780235 L195.687219,0.501317647 L205.807973,0.501317647 L205.807973,65.5780235 Z M248.821176,65.5780235 L248.067109,60.4410941 L247.787855,60.4410941 C244.697548,64.5746 240.197289,66.5893294 234.480222,66.5893294 C226.329539,66.5893294 220.5159,60.9897059 220.5159,53.4604824 C220.5159,42.4504118 230.259218,36.7562 247.13036,36.7562 L247.13036,35.9332824 C247.13036,30.0593529 243.943481,27.1176588 237.666296,27.1176588 C233.166037,27.1176588 229.225897,28.2243412 225.768616,30.4282471 L223.702779,23.9016588 C227.922978,21.3288588 233.166842,20.0424588 239.357112,20.0424588 C251.254792,20.0424588 257.260771,26.1906941 257.260771,38.4966235 L257.260771,54.9266 C257.260771,59.429 257.464377,62.9193059 257.908608,65.5772353 L248.821176,65.5772353 L248.821176,65.5780235 Z M247.411224,43.3592471 C236.160577,43.3592471 230.540082,46.0266353 230.540082,52.3545882 C230.540082,57.0367059 233.446096,59.3257412 237.473152,59.3257412 C242.630101,59.3257412 247.411224,55.476 247.411224,50.2452706 L247.411224,43.3592471 L247.411224,43.3592471 Z M298.266884,66.5901176 C291.806212,66.5901176 287.034747,63.9227294 283.94444,58.692 L283.741639,58.692 L283.162207,65.5780235 L274.53832,65.5780235 C274.818379,62.0025882 274.914951,57.9542118 274.914951,53.5558588 L274.914951,0.501317647 L285.045362,0.501317647 L285.045362,27.4968 L285.238506,27.4968 C288.241093,22.5403765 293.100278,20.0621647 299.762947,20.0621647 C310.733535,20.0621647 318.420672,29.2466824 318.420672,42.6403765 C318.420672,56.4880941 309.8837,66.5901176 298.266884,66.5901176 L298.266884,66.5901176 Z M296.209094,27.8467765 C290.385798,27.8467765 285.055824,32.8032 285.055824,39.6892235 L285.055824,47.4927529 C285.055824,53.6409882 289.844994,58.692 296.036069,58.692 C303.616977,58.692 308.126893,52.6383529 308.126893,42.9998118 C308.116431,34.0044706 303.423028,27.8467765 296.209094,27.8467765 L296.209094,27.8467765 Z M343.50044,65.5780235 L333.390149,65.5780235 L333.390149,0.501317647 L343.50044,0.501317647 L343.50044,65.5780235 Z M398.595615,45.6577412 L368.21404,45.6577412 C368.416841,54.1044706 374.113789,58.8717176 382.554188,58.8717176 C387.054447,58.8717176 391.178075,58.1339294 394.828499,56.7624 L396.402624,63.6484235 C392.09551,65.4834353 387.035133,66.4009412 381.134579,66.4009412 C366.88054,66.4009412 358.449798,57.5853176 358.449798,43.9173176 C358.449798,30.2398588 367.084146,19.9581176 379.995028,19.9581176 C391.613454,19.9581176 398.932813,28.4048471 398.932813,41.1648 C398.971442,42.9052235 398.884527,44.4659294 398.595615,45.6577412 L398.595615,45.6577412 Z M389.314234,38.592 C389.314234,31.7059765 385.749919,26.8441412 379.280395,26.8441412 C373.465951,26.8441412 368.88924,31.8005647 368.213235,38.592 L389.314234,38.592 L389.314234,38.592 Z M459.937394,66.5901176 C446.629762,66.5901176 438.005875,56.8569882 438.005875,43.6430118 C438.005875,29.8709647 446.813249,20.0527059 460.700313,20.0527059 C473.804339,20.0527059 482.631832,29.3223529 482.631832,42.9146824 C482.632637,56.8569882 473.534742,66.5901176 459.937394,66.5901176 Z M460.323682,27.2981647 C453.013176,27.2981647 448.330235,33.9950118 448.330235,43.3592471 C448.330235,52.5437647 453.110553,59.2406118 460.227915,59.2406118 C467.345277,59.2406118 472.115148,52.0802824 472.115148,43.1700706 C472.12479,34.0896 467.441044,27.2981647 460.323682,27.2981647 L460.323682,27.2981647 Z M537.04054,65.5780235 L526.930249,65.5780235 L526.930249,39.9635294 C526.930249,32.0748706 523.839137,28.1210824 517.746244,28.1210824 C511.749118,28.1210824 507.615833,33.1720941 507.615833,39.0460235 L507.615833,65.5780235 L497.504737,65.5780235 L497.504737,33.7207059 C497.504737,29.7763765 497.398507,25.5482824 497.128106,20.9607529 L506.032051,20.9607529 L506.505254,27.8467765 L506.785313,27.8467765 C509.488527,23.0795294 515.032569,20.0432471 521.213182,20.0432471 C530.76416,20.0432471 537.041345,27.2035765 537.041345,38.8568471 L537.041345,65.5780235 L537.04054,65.5780235 L537.04054,65.5780235 Z M603.260014,28.4048471 L592.125253,28.4048471 L592.125253,50.0655529 C592.125253,55.5800471 594.086471,58.3325647 598.01615,58.3325647 C599.802733,58.3325647 601.309258,58.1433882 602.516409,57.8690824 L602.797272,65.3983059 C600.826397,66.1368824 598.18998,66.5049882 594.935501,66.5049882 C586.958647,66.5049882 582.197644,62.1917647 582.197644,50.8979294 L582.197644,28.4048471 L575.553485,28.4048471 L575.553485,20.9702118 L582.197644,20.9702118 L582.197644,12.7977882 L592.125253,9.85609412 L592.125253,20.9607529 L603.260014,20.9607529 L603.260014,28.4048471 Z M656.858321,65.5780235 L646.727106,65.5780235 L646.727106,40.1527059 C646.727106,32.1694588 643.636799,28.1305412 637.543906,28.1305412 C632.299237,28.1305412 627.432809,31.6208471 627.432809,38.6865882 L627.432809,65.5780235 L617.302398,65.5780235 L617.302398,0.501317647 L627.432809,0.501317647 L627.432809,27.2981647 L627.625953,27.2981647 C630.812832,22.4363294 635.409663,20.0432471 641.310217,20.0432471 C650.957767,20.0432471 656.858321,27.3832941 656.858321,39.0460235 L656.858321,65.5780235 L656.858321,65.5780235 Z M708.572669,45.6577412 L678.20075,45.6577412 C678.393894,54.1044706 684.091647,58.8717176 692.532851,58.8717176 C697.042767,58.8717176 701.155933,58.1339294 704.807162,56.7624 L706.390944,63.6484235 C702.083025,65.4834353 697.013796,66.4009412 691.113242,66.4009412 C676.859203,66.4009412 668.428461,57.5853176 668.428461,43.9173176 C668.428461,30.2398588 677.062809,19.9581176 689.973691,19.9581176 C701.592117,19.9581176 708.911476,28.4048471 708.911476,41.1648 C708.948495,42.9052235 708.851923,44.4659294 708.572669,45.6577412 L708.572669,45.6577412 Z M699.291287,38.592 C699.291287,31.7059765 695.737435,26.8441412 689.267106,26.8441412 C683.443809,26.8441412 678.866293,31.8005647 678.199946,38.592 L699.291287,38.592 L699.291287,38.592 Z" id="Shape"></path>
                </g>
            </g>
        </g>
    </g>
</svg>