<?xml version="1.0" encoding="UTF-8"?>
<svg width="300px" height="100px" viewBox="0 0 300 100" version="1.1" xmlns="http://www.w3.org/2000/svg" xmlns:xlink="http://www.w3.org/1999/xlink">
    <title>Artboard</title>
    <g id="Artboard" stroke="none" stroke-width="1" fill="none" fill-rule="evenodd">
        <g id="aivalable-on-the-app-store-2" transform="translate(21.000000, 12.000000)" fill-rule="nonzero">
            <path d="M233.879246,75 L25.1229553,75 C19.5331677,75 15,70.4612966 15,64.8637866 L15,10.1353169 C15,4.53870337 19.5331677,0 25.1229553,0 L233.878798,0 C239.468138,0 244,4.53870337 244,10.1353169 L244,64.8637866 C244,70.4608484 239.468586,75 233.879246,75 Z" id="Path-Copy" fill="#000000"></path>
            <path d="M62.5737669,34.994507 C62.5192768,29.0567686 67.5323681,26.1680396 67.7616024,26.0335516 C64.9224791,21.974961 60.5220886,21.4204281 58.9756965,21.3762129 C55.279763,20.9948565 51.6946887,23.544602 49.8119611,23.544602 C47.891654,23.544602 44.9924037,21.4130589 41.867677,21.4756972 C37.8466818,21.5364932 34.085141,23.8191049 32.0218756,27.3636934 C27.7642868,34.5910429 30.9395891,45.2119121 35.0189889,51.0538508 C37.0593935,53.9167876 39.4439627,57.1094964 42.5647748,56.997116 C45.6181006,56.8755241 46.7586353,55.0903338 50.4432949,55.0903338 C54.0939765,55.0903338 55.1651458,56.997116 58.347964,56.9252662 C61.6250438,56.8755241 63.687996,54.0512756 65.6573128,51.1643889 C68.0154199,47.8869342 68.962264,44.655537 69,44.4897299 C68.9246846,44.4639376 62.6376519,42.1094761 62.5737669,34.994507 L62.5737669,34.994507 Z M56.5610638,17.5331716 C58.2031267,15.5195358 59.3269072,12.7800332 59.0149982,10 C56.637945,10.1031689 53.6655714,11.612014 51.9536734,13.5814345 C50.4392238,15.3168827 49.0863656,18.1613965 49.435854,20.8364185 C52.1060265,21.0317025 54.8474434,19.5154882 56.5610638,17.5331716 L56.5610638,17.5331716 Z" id="Shape" fill="#FFFFFF"></path>
            <g id="Group" transform="translate(80.000000, 33.000000)" fill="#FFFFFF">
                <path d="M21.4388297,25.6218286 L17.1104033,25.6218286 L14.7393939,18.2505714 L6.49788088,18.2505714 L4.23932288,25.6218286 L0.0254127482,25.6218286 L8.19243469,0.526742857 L13.2355946,0.526742857 L21.4388297,25.6218286 Z M14.0248192,15.158 L11.8806186,8.60514286 C11.6538098,7.93571429 11.2268757,6.35925714 10.6015632,3.87765714 L10.5254838,3.87765714 C10.2738976,4.94497143 9.87174086,6.52142857 9.32091954,8.60514286 L7.21293208,15.158 L14.0248192,15.158 Z M42.4006938,16.3516571 C42.4006938,19.4291429 41.5563553,21.8617143 39.8656134,23.6476429 C38.3524431,25.2371429 36.4712644,26.0311857 34.2277952,26.0311857 C31.805325,26.0311857 30.0632811,25.1768 29.0054754,23.4647286 L29.0054754,32.9593 L24.941977,32.9593 L24.941977,13.4740571 C24.941977,11.5410429 24.890675,9.55931429 24.7915653,7.52651429 L28.365233,7.52651429 L28.5920418,10.3946857 L28.6681212,10.3946857 C30.023256,8.23365714 32.0797827,7.15298571 34.8396071,7.15298571 C36.9971494,7.15298571 38.798278,7.9959 40.2391808,9.68361429 C41.6781776,11.3752571 42.4006938,13.5966286 42.4006938,16.3516571 L42.4006938,16.3516571 Z M38.2607983,16.4987429 C38.2607983,14.7374857 37.8605475,13.2854857 37.0562341,12.1408571 C36.1775883,10.9509714 34.9978015,10.3552429 33.5187795,10.3552429 C32.5162466,10.3552429 31.6051996,10.6869714 30.7913563,11.3413143 C29.9756071,12.0013143 29.4419394,12.8630857 29.192418,13.9304 C29.0666249,14.4282286 29.0037283,14.8336571 29.0037283,15.1543857 L29.0037283,18.1732571 C29.0037283,19.4876 29.4116029,20.5984429 30.2273521,21.5073571 C31.0431014,22.4125 32.102813,22.8668 33.4064869,22.8668 C34.9371285,22.8668 36.1283511,22.2805 36.9801546,21.1168571 C37.8338642,19.9496 38.2607983,18.4108571 38.2607983,16.4987429 L38.2607983,16.4987429 Z M63.4365726,16.3516571 C63.4365726,19.4291429 62.5922341,21.8617143 60.901651,23.6476429 C59.3864159,25.2371429 57.5071432,26.0311857 55.2619269,26.0311857 C52.8394566,26.0311857 51.0974127,25.1768 50.0396071,23.4647286 L50.0396071,32.9593 L45.9761087,32.9593 L45.9761087,13.4740571 C45.9761087,11.5410429 45.9246479,9.55931429 45.8255381,7.52651429 L49.3992059,7.52651429 L49.6260146,10.3946857 L49.7022529,10.3946857 C51.0554817,8.23365714 53.1120084,7.15298571 55.8735799,7.15298571 C58.0292163,7.15298571 59.8303448,7.9959 61.2752184,9.68361429 C62.7124681,11.3752571 63.4365726,13.5966286 63.4365726,16.3516571 Z M59.29493,16.4987429 C59.29493,14.7374857 58.8929321,13.2854857 58.0884598,12.1408571 C57.209814,10.9509714 56.0338391,10.3552429 54.5548171,10.3552429 C53.5522842,10.3552429 52.6412372,10.6869714 51.823582,11.3413143 C51.0078328,12.0013143 50.4762299,12.8630857 50.2263908,13.9304 C50.1025037,14.4282286 50.0357952,14.8336571 50.0357952,15.1543857 L50.0357952,18.1732571 C50.0357952,19.4876 50.4455758,20.5984429 51.2575131,21.5073571 C52.0732623,22.4106143 53.1329739,22.8668 54.4404598,22.8668 C55.9726897,22.8668 57.1639122,22.2805 58.0141275,21.1168571 C58.8679958,19.9496 59.29493,18.4108571 59.29493,16.4987429 L59.29493,16.4987429 Z M86.9560711,18.5824571 C86.9560711,20.7189714 86.2013124,22.4557143 84.7014838,23.7964571 C83.050767,25.2597714 80.7466249,25.9933143 77.7922341,25.9933143 C75.0629049,25.9933143 72.8748673,25.4728571 71.2243093,24.4300571 L72.1639457,21.0791429 C73.9460146,22.1238286 75.9034316,22.6442857 78.0342905,22.6442857 C79.5666792,22.6442857 80.7579018,22.3010857 81.6079582,21.6203429 C82.4597618,20.9377143 82.8906667,20.0250286 82.8906667,18.8860571 C82.8906667,17.8660429 82.5342529,17.0116571 81.834767,16.3159857 C81.1314692,15.6220429 79.9688359,14.9752429 78.3355904,14.3812429 C73.8945538,12.7425571 71.672209,10.3458143 71.672209,7.1929 C71.672209,5.1337 72.4574629,3.44787143 74.0243177,2.12975714 C75.5910136,0.813528571 77.6685057,0.155571429 80.2529822,0.155571429 C82.5610951,0.155571429 84.4842048,0.553457143 86.0108757,1.34734286 L84.9911891,4.62455714 C83.5540982,3.85518571 81.9319707,3.4705 80.1175005,3.4705 C78.6843804,3.4705 77.5597074,3.81935714 76.7553939,4.5133 C76.0787795,5.1337 75.7357074,5.89002857 75.7357074,6.78747143 C75.7357074,7.77762857 76.1265873,8.5998 76.9040585,9.24471429 C77.578767,9.83855714 78.8100146,10.4855143 80.5901776,11.1794571 C82.7744033,12.0506571 84.3790596,13.0651714 85.4065287,14.2305429 C86.4414629,15.3956 86.9560711,16.8494857 86.9560711,18.5824571 L86.9560711,18.5824571 Z M100.425622,10.5436571 L95.946466,10.5436571 L95.946466,19.3292 C95.946466,21.5637714 96.7356907,22.6782286 98.3176343,22.6782286 C99.0436447,22.6782286 99.6460857,22.6177286 100.122575,22.4915429 L100.234867,25.5445143 C99.4345246,25.8407286 98.380372,25.9895429 97.0747921,25.9895429 C95.469977,25.9895429 94.2158579,25.5049143 93.3105287,24.5356571 C92.4090115,23.5664 91.9555528,21.9428 91.9555528,19.6573143 L91.9555528,10.5361143 L89.2870554,10.5361143 L89.2870554,7.51897143 L91.9555528,7.51897143 L91.9555528,4.20577143 L95.946466,3.014 L95.946466,7.51897143 L100.425622,7.51897143 L100.425622,10.5436571 L100.425622,10.5436571 Z M120.59429,16.4252 C120.59429,19.2064714 119.790136,21.4900714 118.185162,23.276 C116.506015,25.1145714 114.272234,26.0310286 111.487632,26.0310286 C108.800234,26.0310286 106.663657,25.1504 105.070278,23.3910286 C103.476899,21.6277286 102.680209,19.4065143 102.680209,16.7269143 C102.680209,13.9227 103.503582,11.6260571 105.14461,9.84028571 C106.78945,8.05262857 109.00433,7.15895714 111.788773,7.15895714 C114.472359,7.15895714 116.628155,8.04131429 118.259494,9.80257143 C119.818725,11.5110286 120.59429,13.7173143 120.59429,16.4252 L120.59429,16.4252 Z M116.382127,16.5176 C116.382127,14.8599 116.020155,13.4380714 115.293827,12.2481857 C114.441864,10.8112714 113.222052,10.0929714 111.642015,10.0929714 C110.014328,10.0929714 108.766086,10.8112714 107.91587,12.2481857 C107.187795,13.4380714 106.825664,14.8844143 106.825664,16.5928714 C106.825664,18.2524571 107.187795,19.6779 107.91587,20.8641714 C108.794516,22.3010857 110.020046,23.0195429 111.607707,23.0195429 C113.161062,23.0195429 114.378968,22.286 115.259519,20.8283429 C116.006813,19.6101714 116.382127,18.1789143 116.382127,16.5176 L116.382127,16.5176 Z M133.808443,11.0622286 C133.406286,10.9885286 132.97554,10.9508143 132.527641,10.9508143 C131.098173,10.9508143 129.992719,11.4827429 129.215248,12.5536714 C128.540539,13.4965286 128.20112,14.6883 128.20112,16.1271 L128.20112,25.6216714 L124.137622,25.6216714 L124.137622,13.2251429 C124.137622,11.1414286 124.097597,9.24062857 124.019452,7.5284 L127.558972,7.5284 L127.707636,10.9904143 L127.820088,10.9904143 C128.250834,9.80068571 128.925542,8.8407 129.851837,8.12224286 C130.757166,7.4756 131.734763,7.15298571 132.788915,7.15298571 C133.16423,7.15298571 133.503649,7.17938571 133.80479,7.22668571 L133.808443,11.0622286 L133.808443,11.0622286 Z M151.981735,15.7180571 C151.981735,16.4384 151.933927,17.0454429 151.832911,17.5415429 L139.642416,17.5415429 C139.688159,19.3292 140.279164,20.6982286 141.411143,21.6410857 C142.438612,22.4822714 143.766905,22.9045143 145.398403,22.9045143 C147.203344,22.9045143 148.849931,22.6216571 150.331018,22.0502857 L150.967607,24.8392571 C149.236999,25.586 147.193814,25.9574857 144.836146,25.9574857 C142.000242,25.9574857 139.773927,25.1313857 138.153864,23.4834286 C136.537613,21.8334286 135.727741,19.6158286 135.727741,16.8381714 C135.727741,14.1112714 136.480594,11.8391429 137.988046,10.0269714 C139.566336,8.09222857 141.698943,7.1247 144.382688,7.1247 C147.018625,7.1247 149.014002,8.09207143 150.369137,10.0269714 C151.44219,11.5600571 151.981735,13.4608571 151.981735,15.7180571 L151.981735,15.7180571 Z M148.106767,14.6752571 C148.135356,13.4816 147.868522,12.4538857 147.317701,11.5845714 C146.614245,10.4644571 145.53182,9.90628571 144.081388,9.90628571 C142.752936,9.90628571 141.670353,10.4512571 140.84698,11.5449714 C140.170366,12.4142857 139.768209,13.4589714 139.644481,14.6714857 L148.106767,14.6752571 Z" id="Shape"></path>
            </g>
            <g id="Group" transform="translate(80.000000, 15.000000)" fill="#FFFFFF">
                <path d="M10.56542,11.7453176 L8.45044268,11.7453176 L7.29363451,8.49091765 L3.27036549,8.49091765 L2.16656981,11.7453176 L0.108549376,11.7453176 L4.09584563,0.664094118 L6.55713961,0.664094118 L10.56542,11.7453176 Z M6.94526674,7.12545882 L5.89827015,4.23190588 C5.78845857,3.93543529 5.58587514,3.24592941 5.27348014,2.14475294 L5.23561407,2.14475294 C5.10686947,2.6208 4.92321907,3.312 4.64679682,4.23190588 L3.61873326,7.12545882 L6.94526674,7.12545882 Z M20.5353961,3.75585882 L17.1539569,11.7453176 L15.2245233,11.7453176 L11.9530533,3.75585882 L14.0849126,3.75585882 L15.6109149,7.98098824 C15.8684041,8.68743529 16.0880272,9.36169412 16.2527446,10.0020706 L16.3076504,10.0020706 C16.4554858,9.42776471 16.6749512,8.75350588 16.9494801,7.98098824 L18.4565494,3.75585882 L20.5353961,3.75585882 L20.5353961,3.75585882 Z M27.7337344,11.7453176 L27.5860568,10.8252706 L27.5309932,10.8252706 C26.9251362,11.5656 26.042857,11.9264471 24.9221793,11.9264471 C23.3240738,11.9264471 22.1843053,10.9235294 22.1843053,9.57501176 C22.1843053,7.60305882 24.0946481,6.5832 27.4022486,6.5832 L27.4022486,6.43581176 C27.4022486,5.38376471 26.7774586,4.85689412 25.5468116,4.85689412 C24.6643746,4.85689412 23.8920647,5.05510588 23.2142622,5.44983529 L22.8108309,4.28258824 C23.6382043,3.82178824 24.6664257,3.59138824 25.8798751,3.59138824 C28.2124245,3.59138824 29.390059,4.69256471 29.390059,6.89661176 L29.390059,9.83929412 C29.390059,10.6456941 29.4279251,11.2708235 29.5188036,11.7468706 L27.7337344,11.7453176 L27.7337344,11.7453176 Z M27.4573121,7.76583529 C25.2517719,7.76583529 24.1497117,8.24357647 24.1497117,9.37694118 C24.1497117,10.2155294 24.7195959,10.6255059 25.5091033,10.6255059 C26.5199694,10.6255059 27.4573121,9.936 27.4573121,8.99915294 L27.4573121,7.76583529 Z M33.8093439,2.43952941 C33.1485812,2.43952941 32.6336027,1.97872941 32.6336027,1.37054118 C32.6336027,0.762352941 33.1657787,0.318494118 33.84721,0.318494118 C34.5269058,0.318494118 35.077857,0.762352941 35.0590817,1.37054118 C35.0590817,2.01261176 34.5459966,2.43952941 33.8093439,2.43952941 Z M34.8393008,11.7453176 L32.8551192,11.7453176 L32.8551192,3.75585882 L34.8393008,3.75585882 L34.8393008,11.7453176 Z M40.3488127,11.7453176 L38.3646311,11.7453176 L38.3646311,0.0897882353 L40.3488127,0.0897882353 L40.3488127,11.7453176 Z M48.7815846,11.7453176 L48.6337491,10.8252706 L48.5790011,10.8252706 C47.9731442,11.5656 47.0908649,11.9264471 45.9700295,11.9264471 C44.3720817,11.9264471 43.2323133,10.9235294 43.2323133,9.57501176 C43.2323133,7.60305882 45.1424983,6.5832 48.4500988,6.5832 L48.4500988,6.43581176 C48.4500988,5.38376471 47.8253087,4.85689412 46.5946617,4.85689412 C45.7123825,4.85689412 44.9399149,5.05510588 44.2621124,5.44983529 L43.8571033,4.28089412 C44.6844767,3.82009412 45.7125403,3.58969412 46.9261476,3.58969412 C49.2586969,3.58969412 50.4361737,4.69087059 50.4361737,6.89491765 L50.4361737,9.8376 C50.4361737,10.644 50.4760908,11.2691294 50.5631827,11.7451765 L48.7815846,11.7451765 L48.7815846,11.7453176 Z M48.5051623,7.76583529 C46.2994642,7.76583529 45.1975619,8.24357647 45.1975619,9.37694118 C45.1975619,10.2155294 45.7672883,10.6255059 46.5567957,10.6255059 C47.5678195,10.6255059 48.5051623,9.936 48.5051623,8.99915294 L48.5051623,7.76583529 L48.5051623,7.76583529 Z M58.475454,11.9265882 C57.2088343,11.9265882 56.2733848,11.4488471 55.6675278,10.512 L55.6277684,10.512 L55.5141703,11.7453176 L53.8234506,11.7453176 C53.8783564,11.1049412 53.8972894,10.3798588 53.8972894,9.59209412 L53.8972894,0.0897882353 L55.8833644,0.0897882353 L55.8833644,4.9248 L55.9212304,4.9248 C56.5098899,4.03708235 57.4625369,3.59322353 58.7687582,3.59322353 C60.9195505,3.59322353 62.4266198,5.23821176 62.4266198,7.63708235 C62.4266198,10.1172706 60.7529398,11.9265882 58.475454,11.9265882 L58.475454,11.9265882 Z M58.0720227,4.98748235 C56.930361,4.98748235 55.8854154,5.8752 55.8854154,7.10851765 L55.8854154,8.50616471 C55.8854154,9.60734118 56.824336,10.512 58.038101,10.512 C59.5243439,10.512 60.4085165,9.42776471 60.4085165,7.70145882 C60.4064654,6.09035294 59.4863201,4.98748235 58.0720227,4.98748235 L58.0720227,4.98748235 Z M67.3435278,11.7453176 L65.3613973,11.7453176 L65.3613973,0.0897882353 L67.3435278,0.0897882353 L67.3435278,11.7453176 Z M78.1449796,8.17750588 L72.1886481,8.17750588 C72.2284075,9.69035294 73.3452985,10.5441882 75.0000454,10.5441882 C75.8823246,10.5441882 76.690765,10.4120471 77.4064336,10.1664 L77.715042,11.3997176 C76.8706288,11.7283765 75.878538,11.8927059 74.7217299,11.8927059 C71.9272145,11.8927059 70.274361,10.3137882 70.274361,7.86578824 C70.274361,5.41609412 71.9671317,3.57458824 74.4983201,3.57458824 C76.7761215,3.57458824 78.2110874,5.08743529 78.2110874,7.3728 C78.2186606,7.68451765 78.2016209,7.96404706 78.1449796,8.17750588 L78.1449796,8.17750588 Z M76.3253575,6.912 C76.3253575,5.67868235 75.6265709,4.80790588 74.3582157,4.80790588 C73.2182894,4.80790588 72.3210216,5.69562353 72.1884904,6.912 L76.3253575,6.912 L76.3253575,6.912 Z M90.1710829,11.9265882 C87.5621112,11.9265882 85.8713916,10.1833412 85.8713916,7.81665882 C85.8713916,5.35002353 87.598084,3.59152941 90.3206538,3.59152941 C92.8897083,3.59152941 94.6203451,5.25176471 94.6203451,7.68621176 C94.6205028,10.1833412 92.8368536,11.9265882 90.1710829,11.9265882 Z M90.246815,4.88922353 C88.8135846,4.88922353 87.8954904,6.08865882 87.8954904,7.76583529 C87.8954904,9.41082353 88.8326754,10.6102588 90.2280397,10.6102588 C91.6234041,10.6102588 92.5585409,9.32781176 92.5585409,7.73195294 C92.5604313,6.1056 91.6421793,4.88922353 90.246815,4.88922353 L90.246815,4.88922353 Z M105.287215,11.7453176 L103.305084,11.7453176 L103.305084,7.15764706 C103.305084,5.74475294 102.699069,5.03661176 101.504553,5.03661176 C100.328812,5.03661176 99.5184779,5.94127059 99.5184779,6.99331765 L99.5184779,11.7453176 L97.5361896,11.7453176 L97.5361896,6.03952941 C97.5361896,5.33308235 97.5153632,4.57581176 97.4623507,3.75416471 L99.2079762,3.75416471 L99.300748,4.98748235 L99.3556538,4.98748235 C99.8856209,4.13364706 100.972535,3.58983529 102.184249,3.58983529 C104.056725,3.58983529 105.287372,4.87228235 105.287372,6.95943529 L105.287372,11.7453176 L105.287215,11.7453176 L105.287215,11.7453176 Z M118.269594,5.08743529 L116.086615,5.08743529 L116.086615,8.96696471 C116.086615,9.95463529 116.471114,10.4476235 117.24153,10.4476235 C117.591791,10.4476235 117.887146,10.4137412 118.123809,10.3646118 L118.178873,11.7131294 C117.792481,11.8454118 117.27561,11.9113412 116.637566,11.9113412 C115.073698,11.9113412 114.1403,11.1388235 114.1403,9.11604706 L114.1403,5.08743529 L112.837707,5.08743529 L112.837707,3.75585882 L114.1403,3.75585882 L114.1403,2.29214118 L116.086615,1.76527059 L116.086615,3.75416471 L118.269594,3.75416471 L118.269594,5.08743529 Z M128.777583,11.7453176 L126.791351,11.7453176 L126.791351,7.19152941 C126.791351,5.76169412 126.185494,5.03830588 124.990977,5.03830588 C123.962756,5.03830588 123.008689,5.66343529 123.008689,6.92894118 L123.008689,11.7453176 L121.022614,11.7453176 L121.022614,0.0897882353 L123.008689,0.0897882353 L123.008689,4.88922353 L123.046555,4.88922353 C123.671345,4.01844706 124.572557,3.58983529 125.729365,3.58983529 C127.620775,3.58983529 128.777583,4.90447059 128.777583,6.99331765 L128.777583,11.7453176 L128.777583,11.7453176 Z M138.916221,8.17750588 L132.961783,8.17750588 C132.999649,9.69035294 134.116698,10.5441882 135.771603,10.5441882 C136.655775,10.5441882 137.462165,10.4120471 138.177991,10.1664 L138.488493,11.3997176 C137.643922,11.7283765 136.650095,11.8927059 135.493287,11.8927059 C132.698772,11.8927059 131.045918,10.3137882 131.045918,7.86578824 C131.045918,5.41609412 132.738689,3.57458824 135.269877,3.57458824 C137.547679,3.57458824 138.982645,5.08743529 138.982645,7.3728 C138.989902,7.68451765 138.970969,7.96404706 138.916221,8.17750588 L138.916221,8.17750588 Z M137.096599,6.912 C137.096599,5.67868235 136.399864,4.80790588 135.131351,4.80790588 C133.989689,4.80790588 133.092263,5.69562353 132.961625,6.912 L137.096599,6.912 L137.096599,6.912 Z" id="Shape"></path>
            </g>
        </g>
    </g>
</svg>