<?xml version="1.0" encoding="UTF-8"?>
<svg width="300px" height="100px" viewBox="0 0 300 100" version="1.1" xmlns="http://www.w3.org/2000/svg" xmlns:xlink="http://www.w3.org/1999/xlink">
    <title>Artboard</title>
    <defs>
        <path d="M32.2773805,17.6372613 L22.0094702,11.7239532 C22.0094702,11.7239532 3.30350561,0.949430514 2.20379638,0.31613142 C1.10412425,-0.317167674 0.00845901639,0.0665422961 0.00845901639,1.3899864 L0.00845901639,47.8664494 C0.00845901639,48.8585884 0.791548749,49.2862651 1.74697239,48.7364585 C2.70195082,48.1857636 22.0094702,37.0657243 22.0094702,37.0657243 L32.2769353,31.1528233 C32.2769353,31.1528233 40.9888318,26.1357636 42.1467895,25.4691193 C43.3048214,24.8016239 43.1935186,23.8867598 42.2162796,23.3618603 C41.2394858,22.8364426 32.2773805,17.6372613 32.2773805,17.6372613 L32.2773805,17.6372613 Z" id="path-1"></path>
        <linearGradient x1="49.9998541%" y1="0.000147098194%" x2="49.9998541%" y2="100.000147%" id="linearGradient-3">
            <stop stop-color="#257CB0" offset="0%"></stop>
            <stop stop-color="#4A93B5" offset="28.6%"></stop>
            <stop stop-color="#78BCBB" offset="76.7%"></stop>
            <stop stop-color="#89CFBD" offset="100%"></stop>
        </linearGradient>
        <path d="M32.2773805,17.6372613 L22.0094702,11.7239532 C22.0094702,11.7239532 3.30350561,0.949430514 2.20379638,0.31613142 C1.10412425,-0.317167674 0.00845901639,0.0665422961 0.00845901639,1.3899864 L0.00845901639,47.8664494 C0.00845901639,48.8585884 0.791548749,49.2862651 1.74697239,48.7364585 C2.70195082,48.1857636 22.0094702,37.0657243 22.0094702,37.0657243 L32.2769353,31.1528233 C32.2769353,31.1528233 40.9888318,26.1357636 42.1467895,25.4691193 C43.3048214,24.8016239 43.1935186,23.8867598 42.2162796,23.3618603 C41.2394858,22.8364426 32.2773805,17.6372613 32.2773805,17.6372613 L32.2773805,17.6372613 Z" id="path-4"></path>
        <linearGradient x1="0.00126473415%" y1="49.9985397%" x2="100.001265%" y2="49.9985397%" id="linearGradient-6">
            <stop stop-color="#52C1AD" offset="0%"></stop>
            <stop stop-color="#DEE89A" offset="100%"></stop>
        </linearGradient>
        <path d="M32.2773805,17.6372613 L22.0094702,11.7239532 C22.0094702,11.7239532 3.30350561,0.949430514 2.20379638,0.31613142 C1.10412425,-0.317167674 0.00845901639,0.0665422961 0.00845901639,1.3899864 L0.00845901639,47.8664494 C0.00845901639,48.8585884 0.791548749,49.2862651 1.74697239,48.7364585 C2.70195082,48.1857636 22.0094702,37.0657243 22.0094702,37.0657243 L32.2769353,31.1528233 C32.2769353,31.1528233 40.9888318,26.1357636 42.1467895,25.4691193 C43.3048214,24.8016239 43.1935186,23.8867598 42.2162796,23.3618603 C41.2394858,22.8364426 32.2773805,17.6372613 32.2773805,17.6372613 L32.2773805,17.6372613 Z" id="path-7"></path>
        <linearGradient x1="49.999885%" y1="0.000292074841%" x2="49.999885%" y2="100.000292%" id="linearGradient-9">
            <stop stop-color="#EC413D" offset="0%"></stop>
            <stop stop-color="#DA4452" offset="16.7%"></stop>
            <stop stop-color="#B0487A" offset="57.5%"></stop>
            <stop stop-color="#954A92" offset="86.2%"></stop>
            <stop stop-color="#8A4A9D" offset="100%"></stop>
        </linearGradient>
        <path d="M32.2773805,17.6372613 L22.0094702,11.7239532 C22.0094702,11.7239532 3.30350561,0.949430514 2.20379638,0.31613142 C1.10412425,-0.317167674 0.00845901639,0.0665422961 0.00845901639,1.3899864 L0.00845901639,47.8664494 C0.00845901639,48.8585884 0.791548749,49.2862651 1.74697239,48.7364585 C2.70195082,48.1857636 22.0094702,37.0657243 22.0094702,37.0657243 L32.2769353,31.1528233 C32.2769353,31.1528233 40.9888318,26.1357636 42.1467895,25.4691193 C43.3048214,24.8016239 43.1935186,23.8867598 42.2162796,23.3618603 C41.2394858,22.8364426 32.2773805,17.6372613 32.2773805,17.6372613 L32.2773805,17.6372613 Z" id="path-10"></path>
        <linearGradient x1="50.0010991%" y1="0.000547669119%" x2="50.0010991%" y2="99.9972617%" id="linearGradient-12">
            <stop stop-color="#F58879" offset="0%"></stop>
            <stop stop-color="#F69079" offset="11.9%"></stop>
            <stop stop-color="#FCB877" offset="71.3%"></stop>
            <stop stop-color="#FEC874" offset="100%"></stop>
        </linearGradient>
    </defs>
    <g id="Artboard" stroke="none" stroke-width="1" fill="none" fill-rule="evenodd">
        <g id="google-play-download-android-app" transform="translate(36.000000, 12.000000)">
            <path d="M218.879246,75 L10.1229553,75 C4.53316771,75 0,70.4612966 0,64.8637866 L0,10.1353169 C0,4.53870337 4.53316771,0 10.1229553,0 L218.878798,0 C224.468138,0 229,4.53870337 229,10.1353169 L229,64.8637866 C229,70.4608484 224.468586,75 218.879246,75 Z" id="Path" fill="#000000" fill-rule="nonzero"></path>
            <g id="Clipped" transform="translate(17.000000, 15.000000)">
                <mask id="mask-2" fill="white">
                    <use xlink:href="#path-1"></use>
                </mask>
                <g id="a"></g>
                <polygon id="Path" fill="url(#linearGradient-3)" fill-rule="nonzero" mask="url(#mask-2)" points="0.00890422778 -0.764385196 0.00890422778 49.5544698 25.4456117 24.3952644"></polygon>
            </g>
            <g id="Clipped" transform="translate(17.000000, 15.000000)">
                <mask id="mask-5" fill="white">
                    <use xlink:href="#path-4"></use>
                </mask>
                <g id="d"></g>
                <polygon id="Path" fill="url(#linearGradient-6)" fill-rule="nonzero" mask="url(#mask-5)" points="32.2773805 17.6372613 22.0094702 11.7239532 0.00890422778 -0.947358006 0.00890422778 -0.764385196 25.4456117 24.3952644"></polygon>
            </g>
            <g id="Clipped" transform="translate(17.000000, 15.000000)">
                <mask id="mask-8" fill="white">
                    <use xlink:href="#path-7"></use>
                </mask>
                <g id="g"></g>
                <polygon id="Path" fill="url(#linearGradient-9)" fill-rule="nonzero" mask="url(#mask-8)" points="0.00890422778 49.5544698 0.00890422778 49.7374426 22.0094702 37.0656873 32.2769353 31.1523792 25.4456117 24.3952644"></polygon>
            </g>
            <g id="Clipped" transform="translate(17.000000, 15.000000)">
                <mask id="mask-11" fill="white">
                    <use xlink:href="#path-10"></use>
                </mask>
                <g id="j"></g>
                <polygon id="Path" fill="url(#linearGradient-12)" fill-rule="nonzero" mask="url(#mask-11)" points="32.2773805 17.6372613 25.4456117 24.3952644 32.2769353 31.1523792 44.0113348 24.3948202"></polygon>
            </g>
            <path d="M178.245475,50.2276444 C177.288915,50.2276444 176.416154,50.0499166 175.625856,49.6949098 C174.835558,49.3394542 174.171441,48.7928065 173.635178,48.0558645 L173.474748,48.0558645 C173.581689,48.9193703 173.635178,49.7380327 173.635178,50.5112908 L173.635178,56.5966728 L171.411823,56.5966728 L171.411823,35.1692523 L173.220639,35.1692523 L173.5282,37.1933745 L173.635178,37.1933745 C174.207472,36.3832769 174.873446,35.7993782 175.632505,35.4394345 C176.391639,35.0794908 177.263025,34.899519 178.244992,34.899519 C180.192879,34.899519 181.696363,35.5700375 182.754551,36.910177 C183.813186,38.2503164 184.342726,40.1308202 184.342726,42.549893 C184.342726,44.9788397 183.804271,46.865178 182.728698,48.2111519 C181.652271,49.555742 180.158148,50.2276444 178.245475,50.2276444 L178.245475,50.2276444 Z M177.92365,36.8020143 C176.42284,36.8020143 175.337462,37.2207518 174.667513,38.0569177 C173.997565,38.8934577 173.653453,40.2251072 173.635178,42.0513052 L173.635178,42.5499304 C173.635178,44.628321 173.97929,46.1147717 174.667513,47.0101802 C175.355737,47.9055887 176.459391,48.3521149 177.977139,48.3521149 C179.246608,48.3521149 180.240647,47.8355374 180.960073,46.8010359 C181.678607,45.7669832 182.038283,44.3411215 182.038283,42.523002 C182.038283,40.6797492 181.67857,39.2641727 180.960073,38.2794889 C180.241056,37.2939074 179.228333,36.8020143 177.92365,36.8020143 L177.92365,36.8020143 Z M189.493743,49.9574622 L187.26946,49.9574622 L187.26946,28.9622435 L189.493743,28.9622435 L189.493743,49.9574622 Z M202.283383,49.9574622 L201.840763,47.852592 L201.733785,47.852592 C201.00095,48.7797911 200.270827,49.4076729 199.542523,49.7348536 C198.814629,50.0638296 197.905317,50.2276818 196.815927,50.2276818 C195.359729,50.2276818 194.218595,49.8497858 193.391746,49.0944052 C192.564897,48.3390995 192.152141,47.2646167 192.152141,45.8697227 C192.152141,42.8838059 194.524374,41.318365 199.26791,41.173849 L201.761421,41.0926148 L201.761421,40.1752521 C201.761421,39.0146357 201.513106,38.1574132 201.016997,37.6049311 C200.521779,37.0510651 199.727469,36.7746371 198.638561,36.7746371 C197.414074,36.7746371 196.029195,37.152533 194.48422,37.9078762 L193.800491,36.1943289 C194.524819,35.7984806 195.316901,35.4883919 196.179855,35.2635019 C197.041918,35.0386493 197.905763,34.926036 198.772729,34.926036 C200.523636,34.926036 201.82115,35.3169474 202.665866,36.0996679 C203.509653,36.8823883 203.93177,38.1372169 203.93177,39.8647147 L203.93177,49.9570508 L202.283421,49.9570508 L202.283421,49.9574622 L202.283383,49.9574622 Z M197.258102,48.3794547 C198.642127,48.3794547 199.729735,47.9970333 200.520924,47.2327514 C201.310814,46.4683947 201.707078,45.3975772 201.707078,44.0206355 L201.707078,42.6849841 L199.481494,42.7787849 C197.712795,42.8429644 196.438385,43.1185323 195.655701,43.6099766 C194.874317,44.1000744 194.483365,44.8625985 194.483365,45.8971 C194.483365,46.7063001 194.726294,47.3229617 195.213972,47.7448034 C195.701129,48.1680664 196.381775,48.3794547 197.258102,48.3794547 Z M205.223044,35.1692523 L207.607757,35.1692523 L210.82426,43.6027582 C211.529867,45.5281428 211.967993,46.9176884 212.138266,47.7726295 L212.245281,47.7726295 C212.361583,47.3130505 212.605403,46.5289837 212.975368,45.4168759 C213.346224,44.3056283 214.559493,40.890614 216.613504,35.1692523 L219,35.1692523 L212.687419,52.0089617 C212.06249,53.6731402 211.331958,54.8539155 210.495712,55.5522601 C209.660839,56.2488095 208.63519,56.5966728 207.421437,56.5966728 C206.742128,56.5966728 206.07218,56.5203755 205.410255,56.3677809 L205.410255,54.5734108 C205.901424,54.6811246 206.451468,54.7354303 207.05905,54.7354303 C208.58705,54.7354303 209.675994,53.8719246 210.329005,52.1445016 L211.146047,50.0400054 L205.223044,35.1692523 L205.223044,35.1692523 Z M137.037148,36.5435012 C137.743238,37.1318505 139.217749,38.3678666 139.217749,40.7201045 C139.217749,43.0076768 137.927329,44.0924447 136.63691,45.1116867 C136.237526,45.5133321 135.77663,45.9477779 135.77663,46.6290678 C135.77663,47.3081136 136.23708,47.6797637 136.576289,47.9584732 L137.682618,48.8228392 C139.034104,49.9677474 140.261674,51.0202012 140.261674,53.1551788 C140.261674,56.0625544 137.465988,59 132.183068,59 C127.727926,59 125.578564,56.8663687 125.578564,54.5761037 C125.578564,53.4630608 126.129017,51.8863998 127.94411,50.8025295 C129.847423,49.6271024 132.4296,49.474059 133.811359,49.3789492 C133.379919,48.8228766 132.889604,48.2349387 132.889604,47.2776321 C132.889604,46.7525273 133.04383,46.44285 133.196757,46.0698909 C132.857511,46.1013075 132.520085,46.1322752 132.212561,46.1322752 C128.957279,46.1322752 127.114178,43.6885179 127.114178,41.2770747 C127.114178,39.8539059 127.760056,38.2754496 129.079449,37.1323367 C130.831173,35.6786863 132.919914,35.4304584 134.580336,35.4304584 L140.907181,35.4304584 L138.940981,36.54395 L137.037185,36.54395 L137.037185,36.5435012 L137.037148,36.5435012 Z M134.855247,50.2779108 C134.609681,50.2455967 134.455417,50.2455967 134.149639,50.2455967 C133.873317,50.2455967 132.212041,50.3088785 130.923404,50.7428755 C130.247699,50.9883732 128.281016,51.730701 128.281016,53.9280629 C128.281016,56.1231808 130.401888,57.7030209 133.689226,57.7030209 C136.636464,57.7030209 138.204989,56.2771592 138.204989,54.3611622 C138.204989,52.7804619 137.190966,51.9488215 134.855247,50.2779108 Z M135.746728,44.3998779 C136.452336,43.6876203 136.512994,42.6988972 136.512994,42.1414781 C136.512994,39.9149437 135.192672,36.450598 132.643518,36.450598 C131.843822,36.450598 130.984471,36.8522808 130.492819,37.4716352 C129.971265,38.1210598 129.816147,38.9553931 129.816147,39.7605539 C129.816147,41.8326985 131.014298,45.2665253 133.657541,45.2665253 C134.42559,45.2665253 135.25333,44.8953615 135.746728,44.3998779 L135.746728,44.3998779 Z M117.696938,49.7828761 C112.82098,49.7828761 110.213879,45.953201 110.213879,42.4937921 C110.213879,38.4477543 113.494977,34.9906269 118.158763,34.9906269 C122.665165,34.9906269 125.487187,38.5406949 125.487187,42.2783271 C125.487596,45.9208868 122.697704,49.7828761 117.696938,49.7828761 Z M121.530346,47.2816714 C122.267601,46.2924995 122.451655,45.0578298 122.451655,43.8523701 C122.451655,41.1339051 121.163464,35.9466245 117.359958,35.9466245 C116.348164,35.9466245 115.336332,36.3487561 114.600414,36.9986294 C113.404009,38.0779743 113.188307,39.4374499 113.188307,40.7668179 C113.188307,43.8218511 114.691308,48.8542932 118.403437,48.8542932 C119.59936,48.8542932 120.826447,48.2685993 121.530346,47.2816714 L121.530346,47.2816714 Z M101.073036,49.7828761 C96.1961486,49.7828761 93.5886022,45.953201 93.5886022,42.4937921 C93.5886022,38.4477543 96.8710002,34.9906269 101.533486,34.9906269 C106.041262,34.9906269 108.862764,38.5406949 108.862764,42.2783271 C108.863247,45.9208868 106.07291,49.7828761 101.073036,49.7828761 Z M104.907298,47.2816714 C105.643216,46.2924995 105.827753,45.0578298 105.827753,43.8523701 C105.827753,41.1339051 104.538633,35.9466245 100.735127,35.9466245 C99.7237412,35.9466245 98.7110553,36.3487561 97.9755458,36.9986294 C96.7791776,38.0779743 96.5647763,39.4374499 96.5647763,40.7668179 C96.5647763,43.8218511 98.0669227,48.8542932 101.779535,48.8542932 C102.975903,48.8542932 104.202173,48.2685993 104.907298,47.2816714 L104.907298,47.2816714 Z M91.2457886,49.2986127 L86.8355922,50.3232404 C85.0463887,50.6032963 83.443542,50.8496917 81.7483898,50.8496917 C73.2365238,50.8496917 70,44.546638 70,39.6097546 C70,33.587243 74.5938045,28 82.4580091,28 C84.1237424,28 85.7257719,28.2477418 87.1748381,28.6516686 C89.4873413,29.3038234 90.5665168,30.1102933 91.2453429,30.5766417 L88.6850079,33.0293378 L87.6063152,33.2766308 L88.377001,32.0343314 C87.3290644,31.0106013 85.4154992,29.1170821 81.7782544,29.1170821 C76.9058619,29.1170821 73.2356695,32.8444291 73.2356695,38.2772449 C73.2356695,44.1126411 77.4300902,49.6082899 84.1509326,49.6082899 C86.1264558,49.6082899 87.1418904,49.2052981 88.0676569,48.8318528 L88.0676569,43.8343803 L83.4123401,44.0825709 L85.8781781,42.7460594 L92.4158582,42.7460594 L91.614862,43.5220477 C91.3973777,43.7092004 91.367513,43.7720335 91.3060008,44.0179801 C91.2739075,44.298036 91.2449343,45.1992416 91.2449343,45.5093677 L91.2449343,49.2986501 L91.2457886,49.2986501 L91.2457886,49.2986127 Z" id="Shape" fill="#F9F9F9" fill-rule="nonzero"></path>
            <path d="M146.54227,47.5429926 C145.52535,47.4476616 145.312489,47.2583743 145.312489,46.0204452 L145.312489,28.0752845 C145.318723,28.0069944 145.32273,27.9368711 145.328926,27.8708344 C145.453184,26.7616939 145.760843,26.57149 146.716729,26 L142.310741,26 L140,27.1416814 L142.354857,27.1416814 L142.354857,27.1558894 L142.353076,27.1444314 L142.353076,46.7189287 C142.353076,47.3518721 142.231526,47.4481199 141.522227,48.3982225 L146.974632,48.3982225 L148.114401,47.7024889 C147.591248,47.6369488 147.066759,47.6062412 146.54227,47.5429926 L146.54227,47.5429926 Z M159.075644,47.8344858 C158.740418,48.023773 158.403819,48.2451428 158.068519,48.4014308 C157.057387,48.873503 156.017796,49 155.098345,49 C154.121941,49 152.591218,48.9349182 151.029773,47.7712373 C148.859727,46.1955244 147.911373,43.487793 147.911373,41.1269354 C147.911373,36.2471753 151.765304,33.8542734 154.915798,33.8542734 C156.017314,33.8542734 157.150478,34.1370584 158.068074,34.7365824 C159.596163,35.7737282 159.993685,37.1276511 160.206545,37.8522209 L153.020018,40.8446469 L150.664271,41.0334376 C151.427852,45.0323018 154.058347,47.3605803 156.96526,47.3605803 C158.524924,47.3605803 159.65716,46.7950103 160.696788,46.2606062 L159.075644,47.8344858 L159.075644,47.8344858 Z M156.201234,38.4498735 C156.781377,38.230337 157.087217,38.0405914 157.087217,37.6001435 C157.087217,36.3415898 155.711436,34.8923739 154.058273,34.8923739 C152.833389,34.8923739 150.540903,35.8690592 150.540903,39.268934 C150.540903,39.8042548 150.602346,40.3707414 150.633958,40.9394815 L156.201234,38.4498735 L156.201234,38.4498735 Z M162.028008,34.069685 L162.028008,36.147261 L161.78272,36.147261 L161.78272,34.069685 L161.114865,34.069685 L161.114865,33.8542352 L162.695455,33.8542352 L162.695455,34.069685 L162.028008,34.069685 L162.028008,34.069685 Z M164.779608,36.147261 L164.779608,34.0504354 L164.768477,34.0504354 L164.146927,36.147261 L163.95503,36.147261 L163.328136,34.0504354 L163.320085,34.0504354 L163.320085,36.147261 L163.097467,36.147261 L163.097467,33.8542734 L163.479035,33.8542734 L164.046266,35.7077297 L164.05428,35.7077297 L164.613052,33.8542734 L165,33.8542734 L165,36.147261 L164.779608,36.147261 L164.779608,36.147261 Z" id="Shape" fill="#F9F9F9" fill-rule="nonzero"></path>
            <path d="M76.1096617,21.8156913 L74.5676696,21.8156913 C74.5676696,21.5903765 74.4214539,20.9525405 74.1290226,19.9017069 L71.9030088,19.9017069 C71.601196,20.9353919 71.4500467,21.5731882 71.4500467,21.8156913 L70,21.8156913 C70,21.6827492 70.374958,20.5909493 71.1248739,18.5407678 C71.8747524,16.4905467 72.2497477,15.3610752 72.2497477,15.1534252 L74.0711643,15.1534252 C74.0711643,15.347777 74.4106896,16.4605365 75.0901887,18.4921799 C75.7696879,20.5238233 76.1096617,21.6313429 76.1096617,21.8156913 L76.1096617,21.8156913 Z M73.8836479,18.9242316 C73.3342553,17.1640694 73.0597645,16.2123568 73.0597645,16.068935 L72.9826201,16.068935 C72.9826201,16.2018771 72.698262,17.1535897 72.1299944,18.9242316 L73.8836479,18.9242316 L73.8836479,18.9242316 Z M82.3224818,21.8156913 L81.1325734,21.8156913 C81.1325734,21.6756436 80.6908241,20.9372973 79.8076621,19.6001758 C78.8828256,18.1911251 78.3558213,17.2279403 78.2275836,16.7092322 L78.1504392,16.7092322 C78.2307232,17.4561132 78.2711269,18.131581 78.2711269,18.7356357 C78.2711269,19.5783033 78.2935526,20.6053193 78.338404,21.8162073 L77.1529808,21.8162073 C77.2009344,20.7587048 77.2251916,19.5973574 77.2251916,18.3316888 C77.2251916,17.086543 77.2009718,16.0270954 77.1529808,15.1539412 L78.583704,15.1539412 C78.583704,15.3349552 78.9801906,16.0566292 79.7736124,17.318487 C80.6182022,18.658943 81.1034573,19.5682999 81.2286302,20.0460814 L81.300841,20.0460814 C81.2237339,19.2853465 81.1851243,18.60317 81.1851243,17.9991947 C81.1851243,17.0751106 81.1626612,16.1261767 81.1178471,15.1539412 L82.3225565,15.1539412 C82.2772192,15.9999433 82.255242,17.0593513 82.255242,18.3316888 C82.2547561,19.6135137 82.2771818,20.7748611 82.3224818,21.8156913 L82.3224818,21.8156913 Z M89.3054009,18.2540433 C89.3054009,19.2229046 89.0130069,20.0689464 88.4285554,20.7920494 C87.8436928,21.5156289 87.0246683,21.8767041 85.9711456,21.8767041 C85.4957204,21.8767041 84.840441,21.8561812 84.0053074,21.8152149 C84.0469819,20.7849042 84.0680994,19.6230407 84.0680994,18.3307361 C84.0680994,17.0893615 84.0470192,16.0299535 84.0053074,15.1529488 L84.8485517,15.1529488 C84.9866567,15.1529488 85.1920762,15.147709 85.4652588,15.1377056 C85.7379181,15.1277022 85.9164268,15.1224623 85.9998505,15.1224623 C87.1592973,15.1224623 87.9998131,15.4297097 88.5222949,16.043728 C89.0443655,16.6577464 89.3054009,17.3941874 89.3054009,18.2540433 L89.3054009,18.2540433 Z M87.9903196,18.4740388 C87.9903196,17.8190541 87.8104653,17.2674379 87.4507569,16.8182375 C87.0910484,16.3699898 86.5416184,16.1456675 85.8029153,16.1456675 C85.6648103,16.1456675 85.4754999,16.1609107 85.2341992,16.1918737 C85.2660437,16.8744471 85.2821902,17.5870704 85.2821902,18.3306964 C85.2821902,19.1462119 85.2983368,19.9545821 85.3301439,20.7562833 C85.536271,20.800389 85.7460011,20.8227276 85.9562699,20.8229727 C86.6469819,20.8229727 87.1582882,20.5948395 87.4906746,20.1394068 C87.8230611,19.6840138 87.9903196,19.1290235 87.9903196,18.4740388 L87.9903196,18.4740388 Z M95.7447206,21.8156913 L94.3184452,21.8156913 C93.9457298,20.6081377 93.6600635,19.862646 93.4609232,19.5796926 C93.2617828,19.2962629 92.9406466,19.1547862 92.4975145,19.1547862 C92.3109325,19.1547862 92.132835,19.1566916 91.9628854,19.1600261 C91.9628854,20.0370307 91.9772005,20.922054 92.0063913,21.8156913 L90.6671276,21.8156913 C90.7088021,20.7853408 90.7299196,19.6235171 90.7299196,18.3311727 C90.7299196,17.0898378 90.7088395,16.0303902 90.6671276,15.1534252 L91.5004298,15.1534252 C91.5968604,15.1534252 91.7982807,15.1481853 92.1050645,15.1381819 C92.4118483,15.1281785 92.6953093,15.1228989 92.9554476,15.1228989 C94.4297141,15.1228989 95.1670716,15.6583192 95.1670716,16.7296756 C95.1670716,17.5790121 94.7463652,18.1706419 93.9049523,18.5055177 L93.9049523,18.5822105 C94.2292282,18.677481 94.5135862,18.9466202 94.757578,19.3877226 C95.0010839,19.8293013 95.3302934,20.6386242 95.7447206,21.8156913 L95.7447206,21.8156913 Z M93.938105,17.1078598 C93.938105,16.4290575 93.5268174,16.0894579 92.7046907,16.0894579 C92.4028406,16.0894579 92.1359372,16.1132755 91.9049897,16.1609107 C91.9404224,16.689662 91.9579144,17.3789441 91.9579144,18.2282806 C92.1346664,18.2354259 92.2840217,18.2382844 92.4059802,18.2382844 C93.4272472,18.2387603 93.938105,17.8619655 93.938105,17.1078598 L93.938105,17.1078598 Z M102.650906,18.3616196 C102.650906,19.4086821 102.349056,20.277033 101.744945,20.9663151 C101.140796,21.6551605 100.39402,22 99.504616,22 C98.6565128,22 97.9464773,21.6837019 97.3750701,21.0506295 C96.8032144,20.4180333 96.5175107,19.6135137 96.5175107,18.6383804 C96.5175107,17.5913576 96.8193609,16.722967 97.4235096,16.0336849 C98.0272099,15.3448792 98.7739862,15 99.6638012,15 C100.511942,15 101.221529,15.3153454 101.793384,15.9465124 C102.36524,16.5777192 102.650906,17.3822786 102.650906,18.3616196 L102.650906,18.3616196 Z M101.321547,18.5098049 C101.321547,17.7967052 101.149729,17.2184133 100.806204,16.7749291 C100.462194,16.3314449 100.038348,16.109941 99.5342179,16.109941 C99.0650719,16.109941 98.6667913,16.3333503 98.3393758,16.780169 C98.0119604,17.2269876 97.8473556,17.791505 97.8473556,18.4740785 C97.8473556,19.1833674 98.0200336,19.7607066 98.3653523,20.2061359 C98.7107083,20.6515255 99.1336946,20.8739821 99.6351336,20.8739821 C100.103831,20.8739821 100.50256,20.6496201 100.829976,20.2008563 C101.157391,19.7526086 101.321547,19.1885675 101.321547,18.5098049 L101.321547,18.5098049 Z M105.37522,21.8156913 L104.011736,21.8156913 C104.053448,20.7581887 104.074528,19.5968413 104.074528,18.3311727 C104.074528,17.0859873 104.053485,16.0265793 104.011736,15.1534252 L105.37522,15.1534252 C105.333508,16.0132415 105.312428,17.0721731 105.312428,18.3311727 C105.312428,19.6168481 105.333508,20.7786719 105.37522,21.8156913 Z M112.358587,18.2540433 C112.358587,19.2229046 112.066156,20.0689464 111.481742,20.7920494 C110.896916,21.5156289 110.077892,21.8767041 109.024332,21.8767041 C108.548907,21.8767041 107.893627,21.8561812 107.058456,21.8152149 C107.100206,20.7849042 107.121286,19.6230407 107.121286,18.3307361 C107.121286,17.0893615 107.100243,16.0299535 107.058456,15.1529488 L107.901701,15.1529488 C108.039843,15.1529488 108.245263,15.147709 108.518408,15.1377056 C108.791142,15.1277022 108.969613,15.1224623 109.053074,15.1224623 C110.212484,15.1224623 111.052999,15.4297097 111.575481,16.043728 C112.097552,16.6577464 112.358587,17.3941874 112.358587,18.2540433 L112.358587,18.2540433 Z M111.043543,18.4740388 C111.043543,17.8190541 110.863689,17.2674379 110.503943,16.8182375 C110.144235,16.3699898 109.594842,16.1456675 108.856102,16.1456675 C108.717959,16.1456675 108.528686,16.1609107 108.287386,16.1918737 C108.31923,16.8744471 108.335339,17.5870704 108.335339,18.3306964 C108.335339,19.1462119 108.351523,19.9545821 108.38333,20.7562833 C108.589458,20.8003872 108.799188,20.8227258 109.009456,20.8229727 C109.700131,20.8229727 110.211474,20.5948395 110.543824,20.1394068 C110.876247,19.6840138 111.043543,19.1290235 111.043543,18.4740388 Z M121.623098,21.8156913 L120.081106,21.8156913 C120.081106,21.5903765 119.934891,20.9525405 119.642011,19.9017069 L117.416034,19.9017069 C117.114184,20.9353919 116.962998,21.5731882 116.962998,21.8156913 L115.513437,21.8156913 C115.513437,21.6827492 115.888357,20.5909493 116.638311,18.5407678 C117.388226,16.4905467 117.763184,15.3610752 117.763184,15.1534252 L119.584601,15.1534252 C119.584601,15.347777 119.924575,16.4605365 120.603625,18.4921799 C121.282676,20.5238233 121.623098,21.6313429 121.623098,21.8156913 Z M119.397122,18.9242316 C118.847692,17.1640694 118.572715,16.2123568 118.572715,16.068935 L118.495571,16.068935 C118.495571,16.2018771 118.211661,17.1535897 117.643431,18.9242316 L119.397122,18.9242316 L119.397122,18.9242316 Z M127.242983,16.8978281 C127.242983,17.7133435 126.95769,18.3154531 126.387628,18.7041567 C125.817567,19.0928604 125.118333,19.2876489 124.289441,19.2876489 C124.138329,19.2876489 124.031134,19.2843144 123.966548,19.2776455 C123.966548,19.9192923 123.984003,20.7648577 124.019473,21.8156913 L122.665371,21.8156913 C122.707045,20.830118 122.728163,19.6682545 122.728163,18.3311727 C122.728163,17.103136 122.70712,16.043728 122.665371,15.1534252 L123.503644,15.1534252 C123.6225,15.1534252 123.850308,15.1481853 124.187628,15.1381819 C124.524949,15.1281785 124.816931,15.1228989 125.064474,15.1228989 C125.674453,15.1228989 126.190245,15.2696155 126.610951,15.5630487 C127.031695,15.8565215 127.242983,16.3009584 127.242983,16.8978281 L127.242983,16.8978281 Z M126.00015,17.1793524 C126.00015,16.4495407 125.543973,16.084218 124.631732,16.084218 C124.403439,16.084218 124.162586,16.1099013 123.909176,16.1609107 C123.944608,16.805892 123.962101,17.5356641 123.962101,18.3511795 C124.042347,18.3583248 124.135676,18.3611833 124.241525,18.3611833 C125.413941,18.3616196 126.00015,17.9677158 126.00015,17.1793524 L126.00015,17.1793524 Z M133.021641,16.8978281 C133.021641,17.7133435 132.736386,18.3154531 132.166773,18.7041567 C131.596711,19.0928604 130.897029,19.2876489 130.068212,19.2876489 C129.917025,19.2876489 129.809867,19.2843144 129.745244,19.2776455 C129.745244,19.9192923 129.762773,20.7648577 129.798169,21.8156913 L128.444104,21.8156913 C128.485816,20.830118 128.506933,19.6682545 128.506933,18.3311727 C128.506933,17.103136 128.485853,16.043728 128.444104,15.1534252 L129.282377,15.1534252 C129.401271,15.1534252 129.629079,15.1481853 129.966361,15.1381819 C130.303644,15.1281785 130.595627,15.1228989 130.843207,15.1228989 C131.453149,15.1228989 131.968978,15.2696155 132.389684,15.5630487 C132.810353,15.8565215 133.021641,16.3009584 133.021641,16.8978281 L133.021641,16.8978281 Z M131.778808,17.1793524 C131.778808,16.4495407 131.322669,16.084218 130.410428,16.084218 C130.182134,16.084218 129.941245,16.1099013 129.687871,16.1609107 C129.723267,16.805892 129.740796,17.5356641 129.740796,18.3511795 C129.821043,18.3583248 129.914371,18.3611833 130.020221,18.3611833 C131.1926,18.3616196 131.778808,17.9677158 131.778808,17.1793524 L131.778808,17.1793524 Z M142.469594,18.3616196 C142.469594,19.4086821 142.167744,20.277033 141.563596,20.9663151 C140.959484,21.6555971 140.212671,22 139.323267,22 C138.475164,22 137.765128,21.6837019 137.193758,21.0506295 C136.622314,20.4180333 136.336199,19.6135137 136.336199,18.6383804 C136.336199,17.5913576 136.638049,16.722967 137.24216,16.0336849 C137.846309,15.3444029 138.593123,15 139.482489,15 C140.33063,15 141.040628,15.3153454 141.612035,15.9465124 C142.183442,16.5777192 142.469594,17.3822786 142.469594,18.3616196 L142.469594,18.3616196 Z M141.13975,18.5098049 C141.13975,17.7967052 140.967931,17.2184133 140.624407,16.7749291 C140.280882,16.3314449 139.85655,16.109941 139.352457,16.109941 C138.883274,16.109941 138.484993,16.3333503 138.157578,16.780169 C137.830163,17.2269876 137.666006,17.791505 137.666006,18.4740785 C137.666006,19.1833674 137.838722,19.7607066 138.18404,20.2061359 C138.529359,20.6515255 138.952345,20.8739821 139.453336,20.8739821 C139.922482,20.8739821 140.320762,20.6496201 140.648178,20.200896 C140.976042,19.7526086 141.13975,19.1885675 141.13975,18.5098049 L141.13975,18.5098049 Z M149,21.8156913 L147.810054,21.8156913 C147.810054,21.6756436 147.368679,20.9372973 146.485143,19.6001758 C145.560306,18.1911251 145.033265,17.2279403 144.905027,16.7092322 L144.827883,16.7092322 C144.908167,17.4561132 144.94857,18.131581 144.94857,18.7356357 C144.94857,19.5783033 144.970996,20.6053193 145.015885,21.8162073 L143.830424,21.8162073 C143.878415,20.7587048 143.902635,19.5973574 143.902635,18.3316888 C143.902635,17.086543 143.87849,16.0270954 143.830424,15.1539412 L145.261185,15.1539412 C145.261185,15.3349552 145.65812,16.0566292 146.451093,17.318487 C147.296094,18.658943 147.780938,19.5682999 147.906111,20.0460814 L147.978322,20.0460814 C147.901177,19.2853465 147.862605,18.60317 147.862605,17.9991947 C147.862605,17.0751106 147.840179,16.1261767 147.795291,15.1539412 L149,15.1539412 C148.9547,15.9999433 148.932723,17.0593513 148.932723,18.3316888 C148.932685,19.6135137 148.955111,20.7748611 149,21.8156913 L149,21.8156913 Z" id="Shape" fill="#F9F9FA" fill-rule="nonzero"></path>
        </g>
    </g>
</svg>