<?xml version="1.0" encoding="UTF-8"?>
<svg width="1302px" height="386px" viewBox="0 0 1302 386" version="1.1" xmlns="http://www.w3.org/2000/svg" xmlns:xlink="http://www.w3.org/1999/xlink">
    <title>google-2</title>
    <defs>
        <linearGradient x1="60.9677731%" y1="4.84%" x2="26.2371814%" y2="71.968%" id="linearGradient-1">
            <stop stop-color="#00A0FF" offset="0%"></stop>
            <stop stop-color="#00A1FF" offset="0.7%"></stop>
            <stop stop-color="#00BEFF" offset="26%"></stop>
            <stop stop-color="#00D2FF" offset="51.2%"></stop>
            <stop stop-color="#00DFFF" offset="76%"></stop>
            <stop stop-color="#00E3FF" offset="100%"></stop>
        </linearGradient>
        <linearGradient x1="107.724138%" y1="49.4235294%" x2="-130.669951%" y2="49.4235294%" id="linearGradient-2">
            <stop stop-color="#FFE000" offset="0%"></stop>
            <stop stop-color="#FFBD00" offset="40.9%"></stop>
            <stop stop-color="#FFA500" offset="77.5%"></stop>
            <stop stop-color="#FF9C00" offset="100%"></stop>
        </linearGradient>
        <linearGradient x1="86.3892216%" y1="30.598664%" x2="-49.8862275%" y2="137.037107%" id="linearGradient-3">
            <stop stop-color="#FF3A44" offset="0%"></stop>
            <stop stop-color="#C31162" offset="100%"></stop>
        </linearGradient>
        <linearGradient x1="-18.5808383%" y1="-11.0087314%" x2="42.2754491%" y2="35.2290394%" id="linearGradient-4">
            <stop stop-color="#32A071" offset="0%"></stop>
            <stop stop-color="#2DA771" offset="6.9%"></stop>
            <stop stop-color="#15CF74" offset="47.6%"></stop>
            <stop stop-color="#06E775" offset="80.1%"></stop>
            <stop stop-color="#00F076" offset="100%"></stop>
        </linearGradient>
    </defs>
    <g id="Page-1" stroke="none" stroke-width="1" fill="none" fill-rule="evenodd">
        <g id="Group" transform="translate(-3475.000000, -700.000000)" fill-rule="nonzero">
            <g id="google-2" transform="translate(3475.000000, 700.000000)">
                <path d="M457.835052,98.4677419 C457.835052,106.33871 455.907216,113.225806 451.087629,118.145161 C445.304124,124.048387 438.556701,127 429.881443,127 C421.206186,127 414.458763,124.048387 408.675258,118.145161 C402.891753,112.241935 400,105.354839 400,96.5 C400,87.6451613 402.891753,80.7580645 408.675258,74.8548387 C414.458763,68.9516129 421.206186,66 429.881443,66 C433.737113,66 437.592784,66.983871 441.448454,68.9516129 C445.304124,70.9193548 448.195876,72.8870968 450.123711,75.8387097 L445.304124,80.7580645 C441.448454,75.8387097 436.628866,73.8709677 429.881443,73.8709677 C424.097938,73.8709677 418.314433,75.8387097 414.458763,80.7580645 C409.639175,84.6935484 407.71134,90.5967742 407.71134,97.483871 C407.71134,104.370968 409.639175,110.274194 414.458763,114.209677 C419.278351,118.145161 424.097938,121.096774 429.881443,121.096774 C436.628866,121.096774 441.448454,119.129032 446.268041,114.209677 C449.159794,111.258065 451.087629,107.322581 451.087629,102.403226 L429.881443,102.403226 L429.881443,94.5322581 L457.835052,94.5322581 L457.835052,98.4677419 Z M502.175258,73.8709677 L476.149485,73.8709677 L476.149485,92.5645161 L500.247423,92.5645161 L500.247423,99.4516129 L476.149485,99.4516129 L476.149485,118.145161 L502.175258,118.145161 L502.175258,126.016129 L468.438144,126.016129 L468.438144,66.983871 L502.175258,66.983871 L502.175258,73.8709677 Z M533.984536,126.016129 L526.273196,126.016129 L526.273196,73.8709677 L509.886598,73.8709677 L509.886598,66.983871 L550.371134,66.983871 L550.371134,73.8709677 L533.984536,73.8709677 L533.984536,126.016129 Z M578.324742,126.016129 L578.324742,66.983871 L586.036082,66.983871 L586.036082,126.016129 L578.324742,126.016129 Z M618.809278,126.016129 L611.097938,126.016129 L611.097938,73.8709677 L594.71134,73.8709677 L594.71134,66.983871 L634.231959,66.983871 L634.231959,73.8709677 L617.845361,73.8709677 L617.845361,126.016129 L618.809278,126.016129 Z M710.381443,118.145161 C704.597938,124.048387 697.850515,127 689.175258,127 C680.5,127 673.752577,124.048387 667.969072,118.145161 C662.185567,112.241935 659.293814,105.354839 659.293814,96.5 C659.293814,87.6451613 662.185567,80.7580645 667.969072,74.8548387 C673.752577,68.9516129 680.5,66 689.175258,66 C697.850515,66 704.597938,68.9516129 710.381443,74.8548387 C716.164948,80.7580645 719.056701,87.6451613 719.056701,96.5 C719.056701,105.354839 716.164948,112.241935 710.381443,118.145161 Z M673.752577,113.225806 C677.608247,117.16129 683.391753,120.112903 689.175258,120.112903 C694.958763,120.112903 700.742268,118.145161 704.597938,113.225806 C708.453608,109.290323 711.345361,103.387097 711.345361,96.5 C711.345361,89.6129032 709.417526,83.7096774 704.597938,79.7741935 C700.742268,75.8387097 694.958763,72.8870968 689.175258,72.8870968 C683.391753,72.8870968 677.608247,74.8548387 673.752577,79.7741935 C669.896907,83.7096774 667.005155,89.6129032 667.005155,96.5 C667.005155,103.387097 668.93299,109.290323 673.752577,113.225806 Z M729.659794,126.016129 L729.659794,66.983871 L738.335052,66.983871 L766.28866,113.225806 L766.28866,66.983871 L774,66.983871 L774,126.016129 L766.28866,126.016129 L736.407216,77.8064516 L736.407216,126.016129 L729.659794,126.016129 Z" id="Shape" stroke="#FFFFFF" stroke-width="3.7037037" fill="#FFFFFF"></path>
                <path d="M657.106383,209.331361 C633.985816,209.331361 615.682033,226.692308 615.682033,250.804734 C615.682033,273.952663 633.985816,292.278107 657.106383,292.278107 C680.22695,292.278107 698.530733,274.91716 698.530733,250.804734 C698.530733,225.727811 680.22695,209.331361 657.106383,209.331361 Z M657.106383,274.91716 C644.582742,274.91716 633.985816,264.307692 633.985816,249.840237 C633.985816,235.372781 644.582742,224.763314 657.106383,224.763314 C669.630024,224.763314 680.22695,234.408284 680.22695,249.840237 C680.22695,264.307692 669.630024,274.91716 657.106383,274.91716 Z M567.514184,209.331361 C544.393617,209.331361 526.089835,226.692308 526.089835,250.804734 C526.089835,273.952663 544.393617,292.278107 567.514184,292.278107 C590.634752,292.278107 608.938534,274.91716 608.938534,250.804734 C608.938534,225.727811 590.634752,209.331361 567.514184,209.331361 Z M567.514184,274.91716 C554.990544,274.91716 544.393617,264.307692 544.393617,249.840237 C544.393617,235.372781 554.990544,224.763314 567.514184,224.763314 C580.037825,224.763314 590.634752,234.408284 590.634752,249.840237 C590.634752,264.307692 580.037825,274.91716 567.514184,274.91716 Z M460.58156,221.869822 L460.58156,239.230769 L502.00591,239.230769 C501.042553,248.87574 497.189125,256.591716 492.37234,261.414201 C486.592199,267.201183 476.958629,273.952663 460.58156,273.952663 C434.570922,273.952663 415.303783,253.698225 415.303783,227.656805 C415.303783,201.615385 435.534279,181.360947 460.58156,181.360947 C474.068558,181.360947 484.665485,187.147929 492.37234,193.899408 L504.895981,181.360947 C494.299054,171.715976 480.812057,164 461.544917,164 C426.864066,164 397,192.934911 397,227.656805 C397,262.378698 426.864066,291.313609 461.544917,291.313609 C480.812057,291.313609 494.299054,285.526627 505.859338,272.988166 C517.419622,261.414201 521.27305,245.017751 521.27305,232.47929 C521.27305,228.621302 521.27305,224.763314 520.309693,221.869822 L460.58156,221.869822 Z M897.945626,235.372781 C894.092199,225.727811 884.458629,209.331361 863.264775,209.331361 C842.070922,209.331361 824.730496,225.727811 824.730496,250.804734 C824.730496,273.952663 842.070922,292.278107 865.191489,292.278107 C883.495272,292.278107 895.055556,280.704142 898.908983,273.952663 L885.421986,264.307692 C880.605201,271.059172 874.825059,275.881657 865.191489,275.881657 C855.55792,275.881657 849.777778,272.023669 844.960993,263.343195 L899.87234,240.195266 L897.945626,235.372781 Z M842.070922,248.87574 C842.070922,233.443787 854.594563,224.763314 863.264775,224.763314 C870.008274,224.763314 876.751773,228.621302 878.678487,233.443787 L842.070922,248.87574 Z M796.793144,288.420118 L815.096927,288.420118 L815.096927,167.857988 L796.793144,167.857988 L796.793144,288.420118 Z M767.892435,218.011834 C763.07565,213.189349 755.368794,208.366864 745.735225,208.366864 C725.504728,208.366864 706.237589,226.692308 706.237589,249.840237 C706.237589,272.988166 724.541371,290.349112 745.735225,290.349112 C755.368794,290.349112 763.07565,285.526627 766.929078,280.704142 L767.892435,280.704142 L767.892435,286.491124 C767.892435,301.923077 759.222222,310.60355 745.735225,310.60355 C735.138298,310.60355 727.431442,302.887574 725.504728,296.136095 L710.091017,302.887574 C714.907801,313.497041 726.468085,327 746.698582,327 C767.892435,327 785.232861,314.461538 785.232861,284.56213 L785.232861,211.260355 L767.892435,211.260355 L767.892435,218.011834 Z M746.698582,274.91716 C734.174941,274.91716 723.578014,264.307692 723.578014,249.840237 C723.578014,235.372781 734.174941,224.763314 746.698582,224.763314 C759.222222,224.763314 768.855792,235.372781 768.855792,249.840237 C768.855792,264.307692 759.222222,274.91716 746.698582,274.91716 Z M981.757683,167.857988 L938.406619,167.857988 L938.406619,288.420118 L956.710402,288.420118 L956.710402,243.088757 L981.757683,243.088757 C1001.98818,243.088757 1021.25532,228.621302 1021.25532,205.473373 C1021.25532,182.325444 1001.98818,167.857988 981.757683,167.857988 L981.757683,167.857988 Z M982.72104,225.727811 L956.710402,225.727811 L956.710402,184.254438 L982.72104,184.254438 C996.208038,184.254438 1003.91489,195.828402 1003.91489,204.508876 C1002.95154,215.118343 995.244681,225.727811 982.72104,225.727811 Z M1093.50709,208.366864 C1080.02009,208.366864 1066.5331,214.153846 1061.71631,226.692308 L1078.09338,233.443787 C1081.94681,226.692308 1087.72695,224.763314 1094.47045,224.763314 C1104.10402,224.763314 1112.77423,230.550296 1113.73759,240.195266 L1113.73759,241.159763 C1110.84752,239.230769 1103.14066,236.337278 1095.43381,236.337278 C1078.09338,236.337278 1060.75296,245.982249 1060.75296,263.343195 C1060.75296,279.739645 1075.20331,290.349112 1090.61702,290.349112 C1103.14066,290.349112 1108.9208,284.56213 1113.73759,278.775148 L1114.70095,278.775148 L1114.70095,288.420118 L1132.04137,288.420118 L1132.04137,242.12426 C1130.11466,220.905325 1113.73759,208.366864 1093.50709,208.366864 L1093.50709,208.366864 Z M1091.58038,274.91716 C1085.80024,274.91716 1077.13002,272.023669 1077.13002,264.307692 C1077.13002,254.662722 1087.72695,251.769231 1096.39716,251.769231 C1104.10402,251.769231 1107.95745,253.698225 1112.77423,255.627219 C1110.84752,267.201183 1101.21395,274.91716 1091.58038,274.91716 L1091.58038,274.91716 Z M1192.73286,211.260355 L1172.50236,263.343195 L1171.53901,263.343195 L1150.34515,211.260355 L1131.07801,211.260355 L1162.86879,284.56213 L1144.56501,325.071006 L1162.86879,325.071006 L1212,211.260355 L1192.73286,211.260355 Z M1030.88889,288.420118 L1049.19267,288.420118 L1049.19267,167.857988 L1030.88889,167.857988 L1030.88889,288.420118 Z" id="Shape" fill="#FFFFFF"></path>
                <path d="M100.846154,73 C97.9615385,75.892 97,80.712 97,86.496 L97,299.54 C97,305.324 98.9230769,310.144 101.807692,313.036 L102.769231,314 L222,194.464 L222,192.536 L100.846154,73 Z" id="Path" fill="url(#linearGradient-1)"></path>
                <path d="M259.990148,234 L220,194.929412 L220,192.070588 L259.990148,153 L260.965517,153.952941 L308.758621,180.635294 C322.413793,188.258824 322.413793,200.647059 308.758621,208.270588 L259.990148,234 Z" id="Path" fill="url(#linearGradient-2)"></path>
                <path d="M261,232.733849 L220.508982,192 L100,313.231694 C104.820359,318.080962 111.568862,318.080962 120.245509,314.201548 L261,232.733849 Z" id="Path" fill="url(#linearGradient-3)"></path>
                <path d="M261,151.730995 L120.245509,72.1517722 C111.568862,67.3578431 104.820359,68.3166289 100,73.110558 L220.508982,192 L261,151.730995 Z" id="Path" fill="url(#linearGradient-4)"></path>
                <path d="M260,234 L121.114458,311.884906 C113.451807,316.633985 106.746988,315.684169 101.957831,311.884906 L101,312.834722 L101.957831,313.784538 C106.746988,317.583801 113.451807,318.533617 121.114458,313.784538 L260,234 Z" id="Path" fill="#000000" opacity="0.2"></path>
                <path d="M100.86087,312.024194 C97.9652174,309.096774 97,304.217742 97,298.362903 L97,299.33871 C97,305.193548 98.9304348,310.072581 101.826087,313 L101.826087,312.024194 L100.86087,312.024194 Z M309.347826,204.685484 L261.086957,232.008065 L262.052174,232.983871 L309.347826,205.66129 C316.104348,201.758065 319,196.879032 319,192 C319,196.879032 315.13913,200.782258 309.347826,204.685484 L309.347826,204.685484 Z" id="Shape" fill="#000000" opacity="0.12"></path>
                <path d="M121.130435,73.3333369 L309.347826,179.55914 C315.13913,183.387097 319,187.215054 319,192 C319,187.215054 316.104348,182.430108 309.347826,178.602151 L121.130435,72.3763477 C107.617391,64.7204339 97,70.4623692 97,85.7741967 L97,86.7311859 C97,72.3763477 107.617391,65.6774231 121.130435,73.3333369 Z" id="Path" fill="#FFFFFF" opacity="0.25"></path>
            </g>
        </g>
    </g>
</svg>