<?xml version="1.0" encoding="UTF-8"?>
<svg width="31px" height="40px" viewBox="0 0 31 40" version="1.1" xmlns="http://www.w3.org/2000/svg" xmlns:xlink="http://www.w3.org/1999/xlink">
    <title>icon-drop</title>
    <defs>
        <linearGradient x1="0%" y1="50%" x2="100%" y2="50%" id="linearGradient-1">
            <stop stop-color="#3A416F" offset="0%"></stop>
            <stop stop-color="#141727" offset="100%"></stop>
        </linearGradient>
        <path d="M16.7227194,0.480936093 C16.0374735,-0.160312031 14.9625265,-0.160312031 14.2772806,0.480936093 C13.6951972,1.05277217 0.000739518155,14.7530823 0.000739518155,23.7276847 C-0.0397047521,27.7900468 1.5802577,31.6976313 4.49574626,34.5702933 C7.41123482,37.4429552 11.3770749,39.0391215 15.5,38.9992713 C19.6229251,39.0391215 23.5887652,37.4429552 26.5042537,34.5702933 C29.4197423,31.6976313 31.0397048,27.7900468 30.9992605,23.7276847 C30.9992605,14.7530823 17.3048028,1.05277217 16.7227194,0.480936093 Z M17.2221401,30.5150565 L15.5,30.5150565 C13.6638335,30.5451968 11.8938719,29.8397835 10.595326,28.5603123 C9.29678002,27.2808411 8.58085021,25.5368791 8.61143979,23.7276847 L8.61143979,22.0308417 L12.0557199,22.0308417 L12.0557199,23.7276847 C12.0557199,25.6019657 13.5977766,27.1213706 15.5,27.1213706 L17.2221401,27.1213706 L17.2221401,30.5150565 Z" id="path-2"></path>
    </defs>
    <g id="icon-drop" stroke="none" stroke-width="1" fill="none" fill-rule="evenodd">
        <g id="drop" transform="translate(0.000000, 1.000000)" fill-rule="nonzero">
            <g id="Shape">
                <use fill="#252F40" xlink:href="#path-2"></use>
                <use fill="url(#linearGradient-1)" xlink:href="#path-2"></use>
            </g>
        </g>
    </g>
</svg>