<?xml version="1.0" encoding="UTF-8"?>
<svg width="50px" height="50px" viewBox="0 0 50 50" version="1.1" xmlns="http://www.w3.org/2000/svg" xmlns:xlink="http://www.w3.org/1999/xlink">
    <title>icon-ac</title>
    <defs>
        <linearGradient x1="0%" y1="50%" x2="100%" y2="50%" id="linearGradient-1">
            <stop stop-color="#3A416F" offset="0%"></stop>
            <stop stop-color="#141727" offset="100%"></stop>
        </linearGradient>
        <path d="M25,17.0172414 C25.483871,17.0172414 25.8064516,16.6931034 25.8064516,16.2068966 L25.8064516,0.810344828 C25.8064516,0.324137931 25.483871,0 25,0 C24.516129,0 24.1935484,0.324137931 24.1935484,0.810344828 L24.1935484,16.2068966 C24.1935484,16.6931034 24.516129,17.0172414 25,17.0172414 Z" id="path-2"></path>
        <linearGradient x1="0%" y1="50%" x2="100%" y2="50%" id="linearGradient-3">
            <stop stop-color="#3A416F" offset="0%"></stop>
            <stop stop-color="#141727" offset="100%"></stop>
        </linearGradient>
        <path d="M13.7096774,20.2586207 C14.1935484,20.2586207 14.516129,19.9344828 14.516129,19.4482759 L14.516129,10.5344828 C14.516129,10.0482759 14.1935484,9.72413793 13.7096774,9.72413793 C13.2258065,9.72413793 12.9032258,10.0482759 12.9032258,10.5344828 L12.9032258,19.4482759 C12.9032258,19.9344828 13.2258065,20.2586207 13.7096774,20.2586207 Z" id="path-4"></path>
        <path d="M36.2903226,20.2586207 C36.7741935,20.2586207 37.0967742,19.9344828 37.0967742,19.4482759 L37.0967742,10.5344828 C37.0967742,10.0482759 36.7741935,9.72413793 36.2903226,9.72413793 C35.8064516,9.72413793 35.483871,10.0482759 35.483871,10.5344828 L35.483871,19.4482759 C35.483871,19.9344828 35.8064516,20.2586207 36.2903226,20.2586207 Z" id="path-5"></path>
        <linearGradient x1="31.341617%" y1="41.0243516%" x2="87.5680752%" y2="57.9088996%" id="linearGradient-6">
            <stop stop-color="#F70486" offset="0%"></stop>
            <stop stop-color="#8525C4" offset="100%"></stop>
        </linearGradient>
        <linearGradient x1="0%" y1="50%" x2="100%" y2="50%" id="linearGradient-7">
            <stop stop-color="#3A416F" offset="0%"></stop>
            <stop stop-color="#141727" offset="100%"></stop>
        </linearGradient>
        <path d="M45.9677419,24.3103448 L4.03225806,24.3103448 C1.77419355,24.3103448 0,26.0931034 0,28.362069 L0,42.9482759 C0,45.2172414 1.77419355,47 4.03225806,47 L45.9677419,47 C48.2258065,47 50,45.2172414 50,42.9482759 L50,28.362069 C50,26.0931034 48.2258065,24.3103448 45.9677419,24.3103448 Z M41.9354839,39.7068966 L8.06451613,39.7068966 C7.58064516,39.7068966 7.25806452,39.3827586 7.25806452,38.8965517 C7.25806452,38.4103448 7.58064516,38.0862069 8.06451613,38.0862069 L41.9354839,38.0862069 C42.4193548,38.0862069 42.7419355,38.4103448 42.7419355,38.8965517 C42.7419355,39.3827586 42.4193548,39.7068966 41.9354839,39.7068966 Z M41.9354839,33.2241379 L39.516129,33.2241379 C39.0322581,33.2241379 38.7096774,32.9 38.7096774,32.4137931 L38.7096774,32.4137931 C38.7096774,31.9275862 39.0322581,31.6034483 39.516129,31.6034483 L41.9354839,31.6034483 C42.4193548,31.6034483 42.7419355,31.9275862 42.7419355,32.4137931 L42.7419355,32.4137931 C42.7419355,32.9 42.4193548,33.2241379 41.9354839,33.2241379 Z" id="path-8"></path>
    </defs>
    <g id="icon-ac" stroke="none" stroke-width="1" fill="none" fill-rule="evenodd">
        <g id="air-conditioner" transform="translate(0.000000, 3.000000)" fill-rule="nonzero">
            <g id="Path" opacity="0.497388263">
                <use fill="#444444" xlink:href="#path-2"></use>
                <use fill="url(#linearGradient-1)" xlink:href="#path-2"></use>
            </g>
            <g id="Path" opacity="0.497388263">
                <use fill="#444444" xlink:href="#path-4"></use>
                <use fill="url(#linearGradient-3)" xlink:href="#path-4"></use>
            </g>
            <g id="Path" opacity="0.497388263">
                <use fill="#444444" xlink:href="#path-5"></use>
                <use fill="url(#linearGradient-3)" xlink:href="#path-5"></use>
            </g>
            <g id="Shape">
                <use fill="#444444" xlink:href="#path-8"></use>
                <use fill="url(#linearGradient-6)" xlink:href="#path-8"></use>
                <use fill="url(#linearGradient-7)" xlink:href="#path-8"></use>
            </g>
        </g>
    </g>
</svg>