<?xml version="1.0" encoding="UTF-8"?>
<svg width="38px" height="44px" viewBox="0 0 38 44" version="1.1" xmlns="http://www.w3.org/2000/svg" xmlns:xlink="http://www.w3.org/1999/xlink">
    <title>icon-temperature</title>
    <g id="icon-temperature" stroke="none" stroke-width="1" fill="none" fill-rule="evenodd">
        <g id="temperature-2" transform="translate(18.500000, 23.000000) scale(-1, 1) translate(-18.500000, -23.000000) translate(2.000000, 2.000000)" fill="#FFFFFF" fill-rule="nonzero">
            <path d="M27.4991713,21.5589869 L27.4991713,5.47715296 C27.4991713,2.45220491 25.0368116,0 21.999337,0 C18.9618624,0 16.4995028,2.45220491 16.4995028,5.47715296 L16.4995028,21.5589869 C12.1879845,24.0379774 10.0859393,29.0918351 11.3744731,33.8808771 C12.663007,38.669919 17.0208246,42 21.999337,42 C26.9778494,42 31.3356671,38.669919 32.6242009,33.8808771 C33.9127347,29.0918351 31.8106895,24.0379774 27.4991713,21.5589869 Z M21.999337,36.514353 C19.1525297,36.4979323 16.7888342,34.3207317 16.5506417,31.4955579 C16.3124492,28.6703842 18.278498,26.1311442 21.082698,25.6422044 L21.082698,12.7800236 L22.9159761,12.7800236 L22.9159761,25.6422044 C25.7201761,26.1311442 27.6862249,28.6703842 27.4480323,31.4955579 C27.2098398,34.3207317 24.8461444,36.4979323 21.999337,36.514353 L21.999337,36.514353 Z" id="Shape"></path>
            <path d="M10.0830295,5.47715296 L0.916639042,5.47715296 C0.410393278,5.47715296 0,5.06845214 0,4.56429413 C0,4.06013612 0.410393278,3.6514353 0.916639042,3.6514353 L10.0830295,3.6514353 C10.5892752,3.6514353 10.9996685,4.06013612 10.9996685,4.56429413 C10.9996685,5.06845214 10.5892752,5.47715296 10.0830295,5.47715296 Z" id="Path" opacity="0.499432231"></path>
            <path d="M10.0830295,10.9543059 L6.4164733,10.9543059 C5.91022753,10.9543059 5.49983425,10.5456051 5.49983425,10.0414471 C5.49983425,9.53728908 5.91022753,9.12858826 6.4164733,9.12858826 L10.0830295,9.12858826 C10.5892752,9.12858826 10.9996685,9.53728908 10.9996685,10.0414471 C10.9996685,10.5456051 10.5892752,10.9543059 10.0830295,10.9543059 Z" id="Path" opacity="0.499432231"></path>
            <path d="M10.0830295,16.4314589 L0.916639042,16.4314589 C0.410393278,16.4314589 0,16.022758 0,15.5186 C0,15.014442 0.410393278,14.6057412 0.916639042,14.6057412 L10.0830295,14.6057412 C10.5892752,14.6057412 10.9996685,15.014442 10.9996685,15.5186 C10.9996685,16.022758 10.5892752,16.4314589 10.0830295,16.4314589 Z" id="Path" opacity="0.499432231"></path>
            <path d="M10.0830295,21.9086118 L6.4164733,21.9086118 C5.91022753,21.9086118 5.49983425,21.499911 5.49983425,20.995753 C5.49983425,20.491595 5.91022753,20.0828942 6.4164733,20.0828942 L10.0830295,20.0828942 C10.5892752,20.0828942 10.9996685,20.491595 10.9996685,20.995753 C10.9996685,21.499911 10.5892752,21.9086118 10.0830295,21.9086118 Z" id="Path" opacity="0.499432231"></path>
        </g>
    </g>
</svg>